<?xml version="1.0" encoding="utf-8"?>
<!-- Generator: Adobe Illustrator 27.5.0, SVG Export Plug-In . SVG Version: 6.00 Build 0)  -->
<svg version="1.1" xmlns="http://www.w3.org/2000/svg" xmlns:xlink="http://www.w3.org/1999/xlink" x="0px" y="0px"
	 viewBox="0 0 750 500" style="enable-background:new 0 0 750 500;" xml:space="preserve">
<g id="BACKGROUND">
	<rect style="fill:#FFFFFF;" width="750" height="500"/>
</g>
<g id="OBJECTS">
	<g>
		<g>
			<g>
				<g>
					<g>
						<path style="fill:none;stroke:#D03F23;stroke-width:4;stroke-linecap:round;stroke-miterlimit:10;" d="M340.397,42.241
							c1.991-0.226,3.98-0.44,5.967-0.641"/>
						
							<path style="fill:none;stroke:#D03F23;stroke-width:4;stroke-linecap:round;stroke-miterlimit:10;stroke-dasharray:14.9262,8.9557,17.9114,14.9262;" d="
							M364.217,40.108c16.815-1.105,33.33-1.346,49.23-0.791"/>
						
							<path style="fill:none;stroke:#D03F23;stroke-width:4;stroke-linecap:round;stroke-miterlimit:10;stroke-dasharray:8.9557,17.9114,14.9262,8.9557,17.9114,14.9262;" d="
							M420.903,39.637c27.693,1.418,53.321,5.279,75.158,11.208"/>
						<path style="fill:none;stroke:#D03F23;stroke-width:4;stroke-linecap:round;stroke-miterlimit:10;" d="M503.234,52.909
							c1.939,0.591,3.845,1.199,5.715,1.824"/>
					</g>
				</g>
				<g>
					<g>
						<path style="fill:none;stroke:#D03F23;stroke-width:4;stroke-linecap:round;stroke-miterlimit:10;" d="M506.499,457.948
							c-1.921,0.4-3.883,0.785-5.885,1.154"/>
						
							<path style="fill:none;stroke:#D03F23;stroke-width:4;stroke-linecap:round;stroke-miterlimit:10;stroke-dasharray:22.0529,13.2317,26.4635,22.0529;" d="
							M474.427,462.868c-22.149,2.433-47.084,3.561-72.591,3.714"/>
						
							<path style="fill:none;stroke:#D03F23;stroke-width:4;stroke-linecap:round;stroke-miterlimit:10;stroke-dasharray:13.2317,26.4635,22.0529,13.2317,26.4635,22.0529;" d="
							M390.808,466.589c-53.657-0.252-108.422-4.571-143.96-9.927c-43.984-6.629-85.408-25.144-119.291-53.962
							c-19.568-16.642-38.227-37.981-50.183-64.554"/>
						<path style="fill:none;stroke:#D03F23;stroke-width:4;stroke-linecap:round;stroke-miterlimit:10;" d="M73.192,327.87
							c-0.682-1.869-1.33-3.762-1.944-5.679"/>
					</g>
				</g>
				<g>
					<g>
						<path style="fill:none;stroke:#D03F23;stroke-width:4;stroke-linecap:round;stroke-miterlimit:10;" d="M574.998,87.126
							c1.666,1.113,3.318,2.241,4.954,3.386"/>
						
							<path style="fill:none;stroke:#D03F23;stroke-width:4;stroke-linecap:round;stroke-miterlimit:10;stroke-dasharray:17.9454,10.7672,21.5345,17.9454;" d="
							M597.106,103.528c15.537,12.772,29.403,27.019,41.297,42.289"/>
						
							<path style="fill:none;stroke:#D03F23;stroke-width:4;stroke-linecap:round;stroke-miterlimit:10;stroke-dasharray:10.7672,21.5345,17.9454,10.7672,21.5345,17.9454;" d="
							M643.789,152.989c18.552,25.63,31.635,53.839,37.905,82.613"/>
						<path style="fill:none;stroke:#D03F23;stroke-width:4;stroke-linecap:round;stroke-miterlimit:10;" d="M683.396,244.411
							c0.333,1.975,0.634,3.952,0.901,5.93"/>
					</g>
				</g>
			</g>
		</g>
	</g>
	<g>
		<g style="opacity:0.4;">
			<g>
				<g>
					<path style="fill:#CCC0B2;" d="M653.429,227.46c-60.75-57.3-164.252-66.491-217.345-0.215
						c-26.829,33.489-28.459,81.637-19.172,108.014c28.894,82.063,167.748,209.797,269.582,117.49
						C752.362,393.042,720.405,290.633,653.429,227.46z"/>
				</g>
			</g>
		</g>
		<g>
			<defs>
				<path id="SVGID_1_" d="M661.068,167.771c-60.75-57.3-265.57,8.956-318.663,75.231c-26.829,33.489,31.869,156.302,41.156,182.679
					c10.729,30.473,77.608-12.126,103.501,6.283c55.793,48.175,135.413,78.814,199.432,20.783
					C752.362,393.042,728.044,230.944,661.068,167.771z"/>
			</defs>
			<clipPath id="SVGID_00000001661954570839322760000008768919927707669393_">
				<use xlink:href="#SVGID_1_"  style="overflow:visible;"/>
			</clipPath>
			<g style="clip-path:url(#SVGID_00000001661954570839322760000008768919927707669393_);">
				<g>
					<g>
						<path style="fill:#442017;" d="M607.297,168.937c0,0,24.53-1.236,32.727,15.829c6.957,14.484,0.4,22.109,3.314,29.906
							c2.914,7.797,12.251,9.786,8.238,20.833c-4.013,11.046,10.844,10.569,9.404,22.36c-1.44,11.79-9.246,12.376-0.19,18.722
							c9.055,6.346,16.238,25.601,5.33,32.648c-15.632,10.099-53.926-21.318-81.196-12.947c-27.27,8.371-55.426-2.499-52.302-13.289
							c3.124-10.79,20.52-13.93,15.406-23.303c-5.113-9.373-8.058-21.405,0.382-30.281c8.44-8.876,5.006-8.295,5.148-19.554
							c0.088-6.924,5.549-15.224,8.108-22.726c3.071-9.004,4.144-12.71,15.512-17.728
							C595.35,161.386,607.297,168.937,607.297,168.937z"/>
					</g>
				</g>
			</g>
			<g style="clip-path:url(#SVGID_00000001661954570839322760000008768919927707669393_);">
				<g>
					<g>
						<path style="fill:#442017;" d="M609.691,171.184c0,0,1.866-21.235,25.695-12.815c23.829,8.42,21.846,37.175-4.613,37.074
							C604.313,195.342,609.691,171.184,609.691,171.184z"/>
					</g>
				</g>
			</g>
			<g style="clip-path:url(#SVGID_00000001661954570839322760000008768919927707669393_);">
				<g>
					<g>
						<path style="fill:#FCF9ED;" d="M642.751,194.283c0.122,0.02,0.248,0.023,0.375,0.005c0.571-0.082,0.928-0.555,0.796-1.056
							c-0.065-0.246-6.777-24.666-34.752-25.225c-0.586-0.012-1.041,0.39-1.017,0.898c0.023,0.508,0.518,0.936,1.104,0.941
							c26.205,0.533,32.348,22.737,32.597,23.683C641.955,193.919,642.324,194.212,642.751,194.283z"/>
					</g>
				</g>
			</g>
			<g style="clip-path:url(#SVGID_00000001661954570839322760000008768919927707669393_);">
				<g>
					<g>
						<g>
							<g>
								<g>
									<g>
										<g>
											<g>
												<g>
													<g>
														<g>
															<g>
																<g>
																	<path style="fill:#442017;" d="M607.548,187.221c0,0,1.917,18.628,6.356,23.139
																		c4.44,4.511,10.438-3.238,10.438-3.238S619.192,178.161,607.548,187.221z"/>
																</g>
															</g>
														</g>
													</g>
												</g>
											</g>
										</g>
										<g>
											<g>
												<g>
													<g>
														<g>
															<g>
																<g>
																	<path style="fill:#442017;" d="M585.516,183.528c0,0,7.109,16.453,20.417,15.545
																		c13.307-0.907,6.884-13.094,6.884-13.094S591.217,171.722,585.516,183.528z"/>
																</g>
															</g>
														</g>
													</g>
												</g>
											</g>
										</g>
										<g>
											<g>
												<g>
													<g>
														<g>
															<g>
																<g>
																	<path style="fill:#442017;" d="M589.131,182.993c0,0-9.984,17.556-21.706,11.889
																		c-11.722-5.667,9.35-20.778,17.463-18.396C592.999,178.867,589.131,182.993,589.131,182.993z"/>
																</g>
															</g>
														</g>
													</g>
												</g>
											</g>
										</g>
										<g>
											<g>
												<g>
													<g>
														<g>
															<path style="fill:#442017;" d="M611.974,203.498c0,0,1.665,3.579-0.828,14.753
																c-2.492,11.174-4.333,13.717-4.333,13.717s8.938-7.706,10.323-23.615
																C619.177,184.903,611.974,203.498,611.974,203.498z"/>
														</g>
													</g>
												</g>
											</g>
										</g>
									</g>
								</g>
							</g>
						</g>
					</g>
				</g>
			</g>
			<path style="clip-path:url(#SVGID_00000001661954570839322760000008768919927707669393_);fill:#C1725C;" d="M509.538,325.972
				l7.038-18.743c6.715-17.883,23.816-29.728,42.918-29.728h77.49c21.559,0,40.205,15.021,44.794,36.086l13.781,63.26
				l-51.547,36.548l11.216,71.244c0,0-124.742-4.533-133.539-16.035l9.989-85.016L509.538,325.972z"/>
			<g style="clip-path:url(#SVGID_00000001661954570839322760000008768919927707669393_);">
				<path style="fill:#C1725C;" d="M399.456,303.104"/>
				<path style="fill:#B76856;" d="M509.538,325.972l-26.905,30.608l-54.468-53.415l-24.037,15.673c0,0,29.241,65.343,43.3,81.74
					c14.059,16.397,39.376,34.028,60.881,13.37l27.45-33.512L509.538,325.972z"/>
			</g>
			<path style="clip-path:url(#SVGID_00000001661954570839322760000008768919927707669393_);fill:#7D351D;" d="M490.893,371.651
				c0.158,0,0.318-0.04,0.464-0.126c0.439-0.257,0.586-0.821,0.33-1.259l-9.017-15.402c-0.257-0.44-0.823-0.587-1.259-0.33
				c-0.439,0.257-0.586,0.821-0.33,1.259l9.017,15.402C490.269,371.489,490.576,371.651,490.893,371.651z"/>
			<path style="clip-path:url(#SVGID_00000001661954570839322760000008768919927707669393_);fill:#6059C9;" d="M509.538,325.972
				c0,0,5.543-16.898,8.571-22.807c11.8-23.022,24.429-26.119,42.699-25.664c7.093,0.177,19.271,56.609,19.271,56.609
				s28.658-55.717,40.132-56.609c20.16-1.567,49.554-0.838,60.394,31.737l20.778,64.519l-63.867,2.607l17.917,108.875
				c0,0-119.927,1.14-133.743-16.636l9.989-89.017L509.538,325.972z"/>
			<g style="clip-path:url(#SVGID_00000001661954570839322760000008768919927707669393_);">
				<g>
					<g>
						<path style="fill:#2B2B39;" d="M624.86,280.304"/>
						<g>
							<g>
								<g>
									<g>
										<path style="fill:#C1725C;" d="M628.88,215.524l-3.983-0.999l-6.624,7.693c-2.4,2.787-6.958,0.796-6.545-2.858
											l2.094-18.537c0.382-3.381-3.531-5.521-6.172-3.377l-5.114,4.153l-4.693-1.185c-5.546-1.4-9.521-6.265-9.788-11.979
											l-0.132-2.831l0,0c-2.756,6.218-9.845,9.255-16.247,6.958l-0.135-0.048l-12.796,31.474
											c-5.037,12.389-0.504,26.184,10.098,32.81l-1.478,15.295c-1.154,11.949,7.968,22.697,20.272,23.886l0.51,0.049
											c12.304,1.189,7.15,1.004,8.304-10.945l13.046,0.181l7.02-45.886l5.997,1.504c6.896,1.729,13.956-2.497,15.69-9.392
											l0.07-0.278C640.006,224.314,635.78,217.254,628.88,215.524z"/>
									</g>
									<g>
										<g>
											<path style="fill:#111111;" d="M565.573,210.735c-0.526,1.279,0.084,2.743,1.363,3.268
												c1.279,0.526,2.742-0.084,3.268-1.363c0.526-1.279-0.084-2.742-1.363-3.269
												C567.562,208.845,566.099,209.456,565.573,210.735z"/>
											<path style="fill:#111111;" d="M585.225,215.831c-0.205,1.499,0.845,2.881,2.344,3.086
												c1.5,0.205,2.881-0.844,3.086-2.344c0.205-1.5-0.844-2.881-2.344-3.086C586.812,213.282,585.43,214.332,585.225,215.831z
												"/>
											<g>
												<g>
													<path style="fill:#7D351D;" d="M572.873,246.27c0.103,0.053,0.224,0.071,0.347,0.045
														c0.124-0.027,3.074-0.633,4.622,1.914c0.149,0.246,0.469,0.324,0.716,0.175c0.246-0.15,0.325-0.47,0.176-0.716
														c-1.943-3.194-5.701-2.399-5.739-2.391c-0.28,0.063-0.456,0.34-0.394,0.621
														C572.634,246.076,572.738,246.202,572.873,246.27z"/>
												</g>
											</g>
											<g>
												<g>
													<g>
														<g>
															<path style="fill:#442017;" d="M599.622,208.513c-1.012,0.041-2.093-0.5-3.168-0.962
																c-1.073-0.488-2.162-0.952-3.123-1.321c-0.963-0.371-2.083-0.759-3.206-1.116c-1.108-0.379-2.278-0.706-2.989-1.409
																c-0.691-0.667-0.642-1.797,0.81-2.651c1.379-0.844,4.283-1.222,7.471-0.003c3.179,1.233,5.04,3.445,5.462,4.982
																C601.343,207.626,600.593,208.486,599.622,208.513z"/>
														</g>
													</g>
													<g>
														<path style="fill:#381812;" d="M565.106,200.171c0.627,0.34,1.461,0.28,2.268,0.275
															c0.813-0.025,1.63-0.026,2.339,0.001c0.711,0.026,1.525,0.09,2.334,0.175c0.805,0.066,1.634,0.188,2.279-0.104
															c0.622-0.271,0.906-1.104,0.228-2.169c-0.636-1.035-2.364-2.199-4.716-2.294c-2.35-0.082-4.141,0.949-4.835,1.934
															C564.266,199,564.501,199.853,565.106,200.171z"/>
													</g>
												</g>
											</g>
											<g>
												<path style="fill:#C1725C;" d="M590.103,219.604c0,0-2.024-2.232-4.784-0.679"/>
												<path style="fill:#7D351D;" d="M585.118,219.867c-0.261-0.056-0.498-0.219-0.639-0.47
													c-0.261-0.464-0.096-1.052,0.368-1.313c2.718-1.529,5.094-0.096,5.971,0.872c0.357,0.394,0.328,1.004-0.066,1.362
													c-0.394,0.356-1.003,0.328-1.36-0.063c-0.163-0.175-1.604-1.611-3.599-0.491
													C585.58,219.885,585.341,219.915,585.118,219.867z"/>
											</g>
											<g>
												<path style="fill:#C1725C;" d="M568.826,214.013c0,0-1.267-1.309-2.863-0.193"/>
												<path style="fill:#7D351D;" d="M565.761,214.762c-0.23-0.049-0.442-0.182-0.589-0.391
													c-0.305-0.436-0.198-1.037,0.237-1.343c1.798-1.257,3.471-0.346,4.108,0.314c0.371,0.383,0.361,0.993-0.022,1.364
													c-0.383,0.368-0.989,0.355-1.355-0.015c-0.176-0.169-0.796-0.663-1.625-0.081
													C566.287,214.769,566.013,214.816,565.761,214.762z"/>
											</g>
										</g>
										<path style="fill:#FFFFFF;" d="M587.102,228.276c-0.715-0.732-1.851-0.833-2.734-0.315c-1.608,0.943-5.002,2.5-9.285,2.03
											c-1.052-0.115-1.839,0.968-1.598,1.998c0.531,2.265,3.2,9.163,9.159,7.784
											C589.904,238.09,588.964,230.185,587.102,228.276z"/>
										<g>
											<path style="fill:#C1725C;" d="M578.232,208.253l-3.094,9.782l-2.552-0.38c-1.066-0.385-2.242,0.168-2.627,1.234
												l-0.64,1.774c-0.526,1.456,0.218,3.065,1.668,3.607l4.4,1.645"/>
											<path style="fill:#7D351D;" d="M575.187,226.858c-0.046-0.01-0.093-0.024-0.138-0.04l-4.401-1.645
												c-1.934-0.724-2.938-2.894-2.236-4.837l0.64-1.773c0.272-0.758,0.826-1.364,1.556-1.707
												c0.728-0.344,1.55-0.385,2.305-0.108l1.552,0.219l2.847-9.005c0.163-0.507,0.716-0.787,1.211-0.628
												c0.507,0.161,0.79,0.703,0.629,1.21l-3.343,10.566l-3.365-0.501c-0.46-0.144-0.754-0.132-1.017-0.008
												c-0.263,0.124-0.462,0.342-0.561,0.616l-0.64,1.773c-0.343,0.955,0.149,2.021,1.099,2.377l4.401,1.646
												c0.499,0.187,0.752,0.742,0.564,1.241C576.121,226.706,575.646,226.956,575.187,226.858z"/>
										</g>
									</g>
									<path style="fill:#7D351D;" d="M626.068,232.909c-0.177-0.038-0.345-0.126-0.483-0.263l-3.549-3.573
										c-0.198-0.2-0.299-0.476-0.277-0.757c0.023-0.28,0.167-0.537,0.395-0.702l5.459-3.962c0.431-0.313,1.034-0.214,1.347,0.213
										c0.314,0.431,0.218,1.035-0.213,1.347l-4.549,3.301l2.757,2.775c0.376,0.378,0.372,0.989-0.005,1.363
										C626.71,232.888,626.376,232.975,626.068,232.909z"/>
									<path style="fill:#7D351D;" d="M568.81,257.115c0,0,22.679,6.704,29.127-1.089c6.448-7.792,0,0,0,0
										s-2.635,14.77-30.418,14.448L568.81,257.115z"/>
									<path style="fill:#467B6C;" d="M623.597,246.716c-2.98-0.638-4.992-3.501-4.531-6.551c0.478-3.169,3.447-5.359,6.619-4.881
										c3.143,0.484,5.362,3.444,4.883,6.615c-0.231,1.536-1.046,2.889-2.297,3.812c-1.249,0.922-2.783,1.302-4.32,1.07
										C623.833,246.763,623.715,246.741,623.597,246.716z"/>
									
										<path style="fill:none;stroke:#E06A4B;stroke-width:9.6425;stroke-linecap:round;stroke-linejoin:round;stroke-miterlimit:10;" d="
										M627.626,227.958"/>
								</g>
							</g>
						</g>
					</g>
				</g>
				<path style="fill:#7D351D;" d="M601.506,228.481c-0.342,1.599-2.782,2.431-5.448,1.86c-2.667-0.571-4.551-2.33-4.209-3.928
					c0.342-1.599,2.782-2.432,5.448-1.86C599.964,225.123,601.848,226.882,601.506,228.481z"/>
			</g>
			<g style="opacity:0.2;clip-path:url(#SVGID_00000001661954570839322760000008768919927707669393_);">
				<defs>
					<path id="SVGID_00000039093024455901757900000005326614861447917725_" style="opacity:0.2;" d="M509.538,325.972
						c0,0,5.543-16.898,8.571-22.807c11.8-23.022,24.429-26.119,42.699-25.664c7.093,0.177,19.271,56.609,19.271,56.609
						s28.658-55.717,40.132-56.609c20.16-1.567,49.554-0.838,60.394,31.737l20.778,64.519l-63.867,2.607l17.917,108.875
						c0,0-119.927,1.14-133.743-16.636l9.989-89.017L509.538,325.972z"/>
				</defs>
				<clipPath id="SVGID_00000141418941637792536670000008314290569997070997_">
					<use xlink:href="#SVGID_00000039093024455901757900000005326614861447917725_"  style="overflow:visible;"/>
				</clipPath>
				<g style="clip-path:url(#SVGID_00000141418941637792536670000008314290569997070997_);">
					<g>
						<path style="fill:#F2EAE1;" d="M700.952,297.268H504.57c-3.413,0-6.18-2.766-6.18-6.18l0,0c0-3.413,2.767-6.18,6.18-6.18
							h196.381c3.413,0,6.18,2.767,6.18,6.18l0,0C707.132,294.501,704.365,297.268,700.952,297.268z"/>
					</g>
					<g>
						<path style="fill:#F2EAE1;" d="M700.952,332.928H504.57c-3.413,0-6.18-2.767-6.18-6.18l0,0c0-3.413,2.767-6.18,6.18-6.18
							h196.381c3.413,0,6.18,2.767,6.18,6.18l0,0C707.132,330.16,704.365,332.928,700.952,332.928z"/>
					</g>
					<g>
						<path style="fill:#F2EAE1;" d="M700.952,368.588H504.57c-3.413,0-6.18-2.767-6.18-6.18l0,0c0-3.413,2.767-6.18,6.18-6.18
							h196.381c3.413,0,6.18,2.767,6.18,6.18l0,0C707.132,365.821,704.365,368.588,700.952,368.588z"/>
					</g>
					<g>
						<path style="fill:#F2EAE1;" d="M700.952,404.248H504.57c-3.413,0-6.18-2.767-6.18-6.18l0,0c0-3.414,2.767-6.18,6.18-6.18
							h196.381c3.413,0,6.18,2.766,6.18,6.18l0,0C707.132,401.481,704.365,404.248,700.952,404.248z"/>
					</g>
					<g>
						<path style="fill:#F2EAE1;" d="M700.952,439.908H504.57c-3.413,0-6.18-2.767-6.18-6.18l0,0c0-3.414,2.767-6.18,6.18-6.18
							h196.381c3.413,0,6.18,2.766,6.18,6.18l0,0C707.132,437.141,704.365,439.908,700.952,439.908z"/>
					</g>
					<g>
						<path style="fill:#F2EAE1;" d="M700.952,475.567H504.57c-3.413,0-6.18-2.766-6.18-6.179l0,0c0-3.414,2.767-6.18,6.18-6.18
							h196.381c3.413,0,6.18,2.766,6.18,6.18l0,0C707.132,472.801,704.365,475.567,700.952,475.567z"/>
					</g>
				</g>
			</g>
			<path style="clip-path:url(#SVGID_00000001661954570839322760000008768919927707669393_);fill:#322380;" d="M534.788,388.804
				c-0.318,0-0.622-0.184-0.758-0.494l-4.976-11.336c-3.751-8.546-3.995-18.06-0.687-26.79l5.953-15.696
				c0.163-0.427,0.638-0.643,1.068-0.48c0.427,0.162,0.641,0.639,0.48,1.066l-5.953,15.696c-3.155,8.322-2.922,17.392,0.654,25.538
				l4.976,11.336c0.183,0.418-0.006,0.906-0.425,1.091C535.012,388.781,534.899,388.804,534.788,388.804z"/>
			<g style="clip-path:url(#SVGID_00000001661954570839322760000008768919927707669393_);">
				<g>
					<g>
						<path style="fill:#C1725C;" d="M515.079,372.475c-2.571,0.068-4.786,0.905-5.053,3.957c-1.115,5.396,3.617,7.486,8.08,7.935
							c-4.33,0.84-1.996,7.884,3.411,9.909l28.756,12.472c1.769,0.82,4.125,1.034,6.673,0.909l97.82,38.583
							c24.545,9.281,50.216-10.688,47.26-36.762l-6.898-34.809l-57.613,1.695l3.138,16.261l-69.051-21.834
							c-1.346-2.287-2.846-4.488-4.497-6.519c0,0-16.457-16.749-23.05-21.316c-0.707-0.49-1.44-0.973-2.27-1.198
							c-0.83-0.225-1.785-0.153-2.454,0.387c-0.871,0.703-1.028,1.96-0.99,3.079c0.118,3.472,1.459,6.743,2.797,9.972
							c-2.875-0.957-5.944-2-9.286-3.184c-7.224-1.991-18.734-6.736-20.786,2.866c-0.428,3.394,1.906,4.868,4.651,5.538
							c-4.034-0.191-8.073,0.689-7.995,5.716C507.137,370.68,511.01,371.962,515.079,372.475z M519.882,372.888
							c0.667,0.057,1.28,0.122,1.807,0.214C521.156,373.06,520.542,372.979,519.882,372.888z"/>
						<path style="fill:#322380;" d="M640.378,392.126c0.058,0,0.116-0.005,0.175-0.017c0.499-0.096,0.826-0.579,0.729-1.078
							l-3.009-15.594l-7.502,0.06c-0.008,0-0.015,0-0.023,0c-1.434,0-2.605-1.116-2.671-2.55l-1.983-42.249
							c-0.023-0.509-0.449-0.911-0.963-0.876c-0.508,0.024-0.9,0.455-0.876,0.963l1.983,42.249c0.113,2.435,2.096,4.354,4.549,4.304
							l5.97-0.048l2.72,14.09C639.561,391.82,639.946,392.126,640.378,392.126z"/>
						<path style="opacity:0.5;fill:#AF4E4A;" d="M541.138,355.195l15.648,6.735c0,0-14.87-11.735-17.807-12.695L541.138,355.195z"
							/>
					</g>
					<path style="fill:#7D351D;" d="M525.318,364.309c0.383,0,0.74-0.24,0.871-0.622c0.165-0.481-0.092-1.004-0.572-1.169
						c-0.982-0.336-9.637-3.289-11.362-3.381c-0.483-0.073-0.941,0.36-0.969,0.869c-0.027,0.507,0.362,0.941,0.87,0.969
						c1.107,0.06,7.251,2.047,10.864,3.285C525.119,364.293,525.219,364.309,525.318,364.309z"/>
					<path style="fill:#7D351D;" d="M650.892,397.152c0.385,0,0.743-0.243,0.873-0.628c0.162-0.482-0.098-1.003-0.581-1.165
						l-19.414-6.508c-0.48-0.158-1.004,0.098-1.165,0.581c-0.162,0.482,0.098,1.003,0.581,1.165l19.414,6.508
						C650.696,397.137,650.795,397.152,650.892,397.152z"/>
					<path style="fill:#7D351D;" d="M523.025,376.099c0.388,0,0.749-0.248,0.875-0.637c0.156-0.483-0.109-1.002-0.592-1.158
						l-8.793-2.843c-0.485-0.156-1.003,0.11-1.159,0.592c-0.156,0.483,0.109,1.002,0.592,1.159l8.793,2.843
						C522.836,376.084,522.931,376.099,523.025,376.099z"/>
					<path style="fill:#7D351D;" d="M522.877,386.713c0.396,0,0.762-0.258,0.882-0.657c0.146-0.487-0.131-0.999-0.618-1.145
						l-4.771-1.426c-0.481-0.145-0.999,0.131-1.145,0.618c-0.146,0.487,0.131,1,0.618,1.145l4.771,1.426
						C522.701,386.7,522.79,386.713,522.877,386.713z"/>
				</g>
			</g>
			<polygon style="clip-path:url(#SVGID_00000001661954570839322760000008768919927707669393_);fill:#B76856;" points="
				415.385,289.074 430.838,305.785 420.39,312.348 411.922,304.923 			"/>
			<g style="clip-path:url(#SVGID_00000001661954570839322760000008768919927707669393_);">
				<path style="fill:#2B2B39;" d="M422.093,326.586h-42.884c-1.44,0-2.607-1.167-2.607-2.607v-77.207
					c0-1.44,1.167-2.607,2.607-2.607h42.883c1.44,0,2.607,1.167,2.607,2.607v77.207
					C424.699,325.419,423.532,326.586,422.093,326.586z"/>
				<path style="fill:#5F5F75;" d="M421.683,250.31v70.131c0,1.289-0.827,2.334-1.847,2.334h-38.37c-1.02,0-1.847-1.045-1.847-2.334
					V250.31c0-1.289,0.827-2.335,1.847-2.335h38.37C420.856,247.975,421.683,249.021,421.683,250.31z"/>
				<g>
					<g>
						<path style="fill:#B76856;" d="M395.167,302.658L395.167,302.658c-0.046,3.17-2.677,5.726-5.846,5.68l-18.1-0.261
							c-3.169-0.046-5.726-2.677-5.68-5.847l0,0c0.046-3.169,2.677-5.725,5.846-5.68l18.1,0.261
							C392.656,296.857,395.212,299.488,395.167,302.658z"/>
						<path style="fill:#B76856;" d="M395.529,291.038L395.529,291.038c-0.046,3.17-2.677,5.726-5.846,5.68l-19.538-0.282
							c-3.17-0.046-5.726-2.677-5.68-5.846l0,0c0.046-3.169,2.676-5.726,5.846-5.68l19.538,0.282
							C393.018,285.237,395.574,287.868,395.529,291.038z"/>
						<path style="fill:#B76856;" d="M425.666,308.748L425.666,308.748c-2.265,2.217-5.933,2.178-8.151-0.087l-13.669-13.963
							c-2.218-2.266-2.178-5.933,0.086-8.151l0.001,0c2.265-2.217,5.933-2.178,8.15,0.087l13.669,13.963
							C427.97,302.862,427.931,306.53,425.666,308.748z"/>
						<path style="fill:#B76856;" d="M391.099,313.971L391.099,313.971c-0.046,3.17-2.677,5.726-5.847,5.68l-11.754-0.169
							c-3.17-0.046-5.726-2.677-5.68-5.847h0c0.046-3.17,2.677-5.726,5.846-5.68l11.754,0.17
							C388.589,308.171,391.145,310.802,391.099,313.971z"/>
						<path style="fill:#B76856;" d="M390.828,324.943L390.828,324.943c-0.046,3.17-2.677,5.726-5.846,5.68l-5.789-0.083
							c-3.17-0.046-5.726-2.677-5.68-5.846l0,0c0.046-3.169,2.676-5.726,5.846-5.68l5.788,0.084
							C388.318,319.142,390.874,321.773,390.828,324.943z"/>
					</g>
					<path style="fill:#7D351D;" d="M370.109,296.929c-0.002-0.024-0.002-0.048-0.002-0.074c0.002-0.569,0.466-1.028,1.035-1.025
						l18.409,0.085c0.568,0.001,1.044,0.451,1.025,1.035c-0.002,0.569-0.466,1.028-1.035,1.025l-18.409-0.085
						C370.588,297.888,370.144,297.464,370.109,296.929z"/>
					<path style="fill:#7D351D;" d="M370.181,308.966c-0.002-0.026-0.002-0.052-0.002-0.08c0.006-0.569,0.473-1.025,1.042-1.019
						l16.908,0.182c0.568,0.006,1.027,0.464,1.019,1.041c-0.006,0.569-0.472,1.025-1.041,1.019l-16.908-0.183
						C370.656,309.922,370.216,309.498,370.181,308.966z"/>
					<path style="fill:#7D351D;" d="M373.013,320.056c-0.001-0.017-0.002-0.034-0.002-0.051c-0.009-0.569,0.444-1.037,1.013-1.047
						l13.285-0.225c0.568-0.008,1.038,0.452,1.048,1.013c0.009,0.569-0.444,1.037-1.013,1.047l-13.285,0.225
						C373.506,321.028,373.049,320.602,373.013,320.056z"/>
				</g>
			</g>
		</g>
		<g>
			<path style="fill:#F0C86A;" d="M473.29,235.175c2.769,2.664,5.035,1.7,5.035-2.143v-12.391c0-3.842,3.144-6.986,6.986-6.986
				h38.211c3.842,0,6.986-3.144,6.986-6.986v-48.974c0-3.842-3.144-6.986-6.986-6.986H390.489c-3.843,0-6.986,3.144-6.986,6.986
				v48.974c0,3.842,3.144,6.986,6.986,6.986h53.44c3.842,0,9.253,2.179,12.022,4.843L473.29,235.175z"/>
			<g>
				<path style="fill:#FFFFFF;" d="M398.689,170.54h116.635c1.393,0,2.522-1.129,2.522-2.522l0,0c0-1.393-1.129-2.522-2.522-2.522
					H398.689c-1.393,0-2.522,1.129-2.522,2.522l0,0C396.167,169.411,397.296,170.54,398.689,170.54z"/>
				<path style="fill:#FFFFFF;" d="M398.689,183.116h116.635c1.393,0,2.522-1.129,2.522-2.522l0,0c0-1.393-1.129-2.522-2.522-2.522
					H398.689c-1.393,0-2.522,1.129-2.522,2.522l0,0C396.167,181.987,397.296,183.116,398.689,183.116z"/>
				<path style="fill:#FFFFFF;" d="M398.689,195.691h82.375c1.393,0,2.522-1.129,2.522-2.522l0,0c0-1.393-1.129-2.522-2.522-2.522
					h-82.375c-1.393,0-2.522,1.129-2.522,2.522l0,0C396.167,194.562,397.296,195.691,398.689,195.691z"/>
			</g>
		</g>
	</g>
	<g>
		<g style="opacity:0.4;">
			<g>
				<g>
					<path style="fill:#CCC0B2;" d="M268.687,309.151c-69.501,49.01-177.326,43.752-224.138-30.195
						c-23.655-37.366-19.571-85.918-6.837-111.092c39.618-78.321,198.086-187.094,292.04-80.2
						C390.523,156.804,345.311,255.117,268.687,309.151z"/>
				</g>
			</g>
		</g>
		<g>
			<defs>
				<path id="SVGID_00000153704836749462249660000014168184777282535809_" d="M268.687,309.151
					c-69.501,49.01-177.326,43.752-224.138-30.195c-23.655-37.366-19.571-85.918-6.837-111.092
					c16.664-32.943,41.248-120.915,86.32-146.318c62.086-34.992,151.284,4.185,205.72,66.118
					C390.523,156.804,345.311,255.117,268.687,309.151z"/>
			</defs>
			<clipPath id="SVGID_00000134235151844721405300000014561915029003475637_">
				<use xlink:href="#SVGID_00000153704836749462249660000014168184777282535809_"  style="overflow:visible;"/>
			</clipPath>
			<g style="clip-path:url(#SVGID_00000134235151844721405300000014561915029003475637_);">
				<path style="fill:#E69773;" d="M237.548,194.328l26.281,29.898l53.204-52.176l23.48,15.31l-42.296,79.844
					c-7.017,27.041-41.766,34.672-59.469,13.06l-26.813-32.735L237.548,194.328z"/>
				<path style="fill:#AF4E4A;" d="M255.761,238.948c-0.154,0-0.311-0.039-0.453-0.123c-0.428-0.251-0.572-0.802-0.322-1.23
					l8.808-15.045c0.251-0.43,0.803-0.573,1.23-0.322c0.428,0.251,0.572,0.802,0.322,1.23l-8.808,15.045
					C256.371,238.789,256.07,238.948,255.761,238.948z"/>
				<g>
					<path style="fill:#E69773;" d="M317.223,174.404l-0.07-0.003c-0.163-0.806-0.326-1.611-0.489-2.417l-0.003-0.011h0
						c-2.588-12.776-9.368-26.844-12.027-39.605c-0.198-0.948-0.396-1.917-0.278-2.878c0.175-1.419,1.085-2.726,2.353-3.384
						c1.269-0.659,2.861-0.648,4.122,0.026c1.475,0.789,2.382,2.34,2.981,3.902c0.789,2.059,1.533,4.126,2.339,6.18
						c0.793,2.019,3.779,1.542,3.902-0.625c0.448-7.886,0.887-15.772,1.315-23.659c0.084-1.555,0.226-3.25,1.294-4.383
						c1.458-1.547,4.427-1.12,5.391,0.774c0.391,0.769,0.468,1.654,0.539,2.514c0.44,5.377,1.108,10.739,1.321,16.13
						c0.165,4.192,0.896,6.843,0.751,9.89c0.048-1-0.01-2.489,0.038-3.489c0.293-6.056,0.657-12.102,0.698-18.159
						c0.006-0.942,0.378-2.012,0.878-2.811c0.329-0.526,0.825-0.95,1.404-1.173c0.58-0.223,1.25-0.238,1.816,0.02
						c0.666,0.301,1.129,0.942,1.378,1.629c0.428,1.178,0.679,2.43,0.735,3.675c0.161,3.577,0.295,7.156,0.469,10.733
						c0.177,3.644,0.064,7.396,0.486,11.021c-0.116-1.004,0.079-2.101,0.173-3.099c0.197-2.096,0.443-4.187,0.713-6.275
						c0.27-2.094,0.329-4.614,1.992-6.147c0.703-0.648,1.777-1.021,2.624-0.58c0.39,0.203,0.687,0.555,0.898,0.94
						c0.699,1.275,0.55,2.831,0.489,4.23c-0.059,1.365-0.116,2.73-0.173,4.095c-0.117,2.761-0.237,5.522-0.393,8.281
						c-0.069,1.579-0.137,3.158-0.206,4.736l1.802-5.74c0.657-2.215,2.928-5.746,5.014-4.752c1.199,0.572,1.8,1.934,1.414,3.205
						l-7.837,34.798"/>
					<path style="fill:#E69773;" d="M317.223,174.404l-0.07-0.003c-0.163-0.806-0.326-1.611-0.489-2.417l-0.003-0.011h0
						c-2.588-12.776-9.368-26.844-12.027-39.605c-0.198-0.948-0.396-1.917-0.278-2.878c0.175-1.419,1.085-2.726,2.353-3.384
						c1.269-0.659,2.861-0.648,4.122,0.026c1.475,0.789,2.382,2.34,2.981,3.902c0.789,2.059,1.533,4.126,2.339,6.18
						c0.793,2.019,3.779,1.542,3.902-0.625c0.448-7.886,0.887-15.772,1.315-23.659c0.084-1.555,0.226-3.25,1.294-4.383
						c1.458-1.547,4.427-1.12,5.391,0.774c0.391,0.769,0.468,1.654,0.539,2.514c0.44,5.377,1.108,10.739,1.321,16.13
						c0.165,4.192,0.896,6.843,0.751,9.89c0.048-1-0.01-2.489,0.038-3.489c0.293-6.056,0.657-12.102,0.698-18.159
						c0.006-0.942,0.378-2.012,0.878-2.811c0.329-0.526,0.825-0.95,1.404-1.173c0.58-0.223,1.25-0.238,1.816,0.02
						c0.666,0.301,1.129,0.942,1.378,1.629c0.428,1.178,0.679,2.43,0.735,3.675c0.161,3.577,0.295,7.156,0.469,10.733
						c0.177,3.644,0.064,7.396,0.486,11.021c-0.116-1.004,0.079-2.101,0.173-3.099c0.197-2.096,0.443-4.187,0.713-6.275
						c0.27-2.094,0.329-4.614,1.992-6.147c0.703-0.648,1.777-1.021,2.624-0.58c0.39,0.203,0.687,0.555,0.898,0.94
						c0.699,1.275,0.55,2.831,0.489,4.23c-0.059,1.365-0.116,2.73-0.173,4.095c-0.117,2.761-0.237,5.522-0.393,8.281
						c-0.069,1.579-0.137,3.158-0.206,4.736l1.802-5.74c0.657-2.215,2.928-5.746,5.014-4.752c1.199,0.572,1.8,1.934,1.414,3.205
						l-7.837,34.798l-4.563,15.369L317.223,174.404z"/>
					<path style="fill:#AF4E4A;" d="M324.554,152.941L324.554,152.941c-0.108,0.036-0.222,0.051-0.344,0.044
						c-0.233-0.017-0.446-0.124-0.6-0.301c-0.153-0.178-0.228-0.404-0.211-0.637c0.736-10.351-6.78-14.118-7.101-14.274
						c-0.21-0.103-0.369-0.281-0.444-0.502c-0.078-0.222-0.063-0.46,0.038-0.668c0.101-0.213,0.279-0.372,0.501-0.448
						c0.222-0.078,0.459-0.063,0.665,0.037c0.09,0.042,8.905,4.515,8.09,15.98c-0.017,0.247-0.136,0.469-0.321,0.619
						C324.747,152.856,324.655,152.907,324.554,152.941z M324.242,152.117l0.01-0.008L324.242,152.117z"/>
				</g>
				<g>
					<circle style="fill:#6059C9;" cx="138.261" cy="94.072" r="15.248"/>
					<circle style="fill:#6059C9;" cx="129.714" cy="77.051" r="15.248"/>
					<circle style="fill:#6059C9;" cx="129.021" cy="54.166" r="15.248"/>
					<circle style="fill:#6059C9;" cx="140.269" cy="37.583" r="15.248"/>
					<circle style="fill:#6059C9;" cx="160.63" cy="28.607" r="15.248"/>
					
						<ellipse transform="matrix(0.9286 -0.371 0.371 0.9286 2.5124 68.8889)" style="fill:#6059C9;" cx="180.305" cy="27.914" rx="15.248" ry="15.248"/>
					<circle style="fill:#6059C9;" cx="200.285" cy="36.545" r="15.248"/>
					<circle style="fill:#6059C9;" cx="210.801" cy="50.213" r="15.248"/>
					<path style="fill:#D03F23;" d="M257.004,205.12l-42.948-40.331c-7.118-8.751-17.835-14.448-29.913-14.803l-66.033-1.94
						c-0.67,0-1.33,0.044-1.987,0.095l-0.073-0.101l-12.374,0.236c-18.202,0.346-34.98,11.061-41.853,27.92
						c-0.912,2.238-1.655,4.566-2.211,6.975L48.16,234.903c-0.804,3.633,1.891,7.102,5.61,7.221l33.271,1.065l-7.486,95.866h149.114
						l-3.411-90.836l32.018-33.805C259.775,211.775,259.654,207.607,257.004,205.12z"/>
					<g>
						<g>
							<g>
								<path style="fill:#E69773;" d="M196.63,65.989c-4.73-0.524-9.084-8.633-9.084-8.633s-29.37-1.224-30.423-5.262
									l-2.665,24.062l-7.141-0.791l-6.27-0.694c-0.996-0.11-1.975-0.08-2.928,0.05c-5.33,0.727-9.726,4.999-10.344,10.574
									l-0.129,1.166c-0.728,6.571,4.053,12.544,10.624,13.271l3.189,0.353l-7.611,39.534c-2.225,11.559,5.341,22.733,16.9,24.958
									l2.042,0.393c11.559,2.225,22.733-5.341,24.958-16.9l2.867-14.891c10.56,0.992,20.005-6.652,21.177-17.234l5.171-46.685
									c0.12-1.08,0.125-4.432,0.07-5.483c-1.591,0.509-3.309,2.997-5.077,2.801L196.63,65.989z"/>
							</g>
							<g>
								<path style="fill:#AF4E4A;" d="M137.772,91.652c-0.292-0.032-0.562-0.207-0.705-0.489c-0.224-0.443-0.046-0.984,0.398-1.208
									l3.458-1.746l-3.23-4.509c-0.289-0.403-0.196-0.965,0.208-1.254c0.4-0.289,0.963-0.197,1.254,0.208l3.841,5.362
									c0.153,0.213,0.204,0.483,0.142,0.738c-0.063,0.255-0.233,0.47-0.468,0.589l-4.396,2.219
									C138.114,91.642,137.939,91.67,137.772,91.652z"/>
								<g>
									<path style="fill:#AF4E4A;" d="M184.334,98.71l-3.348-0.371c-0.494-0.055-0.849-0.499-0.795-0.993
										c0.055-0.494,0.499-0.849,0.993-0.795l3.348,0.371c0.941,0.104,1.875-0.211,2.56-0.866
										c0.685-0.654,1.043-1.571,0.982-2.516l-0.767-11.984c-0.032-0.495,0.345-0.922,0.841-0.954
										c0.494-0.03,0.922,0.345,0.954,0.841l0.767,11.982c0.095,1.476-0.465,2.91-1.536,3.931
										C187.263,98.379,185.805,98.872,184.334,98.71z"/>
									<g>
										<path style="fill:#111111;" d="M198.631,89.569c0.093,1.35-0.925,2.519-2.274,2.612c-1.349,0.093-2.519-0.925-2.612-2.274
											c-0.093-1.349,0.925-2.519,2.274-2.612C197.369,87.202,198.538,88.22,198.631,89.569z"/>
										<g>
											<g>
												<path style="fill:#AF4E4A;" d="M179.814,120.167c-0.112,0.017-0.23-0.004-0.336-0.066
													c-0.106-0.063-2.657-1.537-4.879,0.349c-0.214,0.182-0.535,0.155-0.719-0.059c-0.182-0.215-0.156-0.536,0.058-0.719
													c2.789-2.363,6.03-0.465,6.063-0.446c0.24,0.145,0.318,0.456,0.174,0.697
													C180.096,120.06,179.96,120.145,179.814,120.167z"/>
											</g>
										</g>
										<g>
											<g>
												<g>
													<g>
														<g>
															<path style="fill:#2B2B39;" d="M163.786,77.19c1.228,0.464,2.781,0.243,4.292,0.114
																c1.521-0.161,3.051-0.285,4.385-0.346c1.337-0.062,2.874-0.081,4.403-0.06c1.518-0.012,3.093,0.064,4.255-0.51
																c1.124-0.538,1.527-1.948,0.09-3.594c-1.352-1.604-4.771-3.258-9.194-3.064c-4.417,0.215-7.614,2.175-8.762,3.894
																C162.031,75.394,162.602,76.759,163.786,77.19z"/>
														</g>
													</g>
													<g>
														<g>
															<path style="fill:#2B2B39;" d="M205.213,81.928c-0.911,0.161-1.913-0.253-2.904-0.59
																c-0.991-0.363-1.995-0.7-2.88-0.957c-0.885-0.258-1.914-0.515-2.945-0.74c-1.017-0.249-2.088-0.438-2.762-1.062
																c-0.655-0.588-0.663-1.73,0.608-2.762c1.206-1.013,3.809-1.738,6.743-0.892c2.926,0.861,4.708,2.865,5.159,4.361
																C206.725,80.831,206.087,81.785,205.213,81.928z"/>
														</g>
													</g>
												</g>
											</g>
										</g>
										<path style="fill:#111111;" d="M177.35,88.065c-0.273,1.454-1.673,2.412-3.128,2.14c-1.454-0.273-2.413-1.673-2.139-3.127
											c0.273-1.455,1.673-2.412,3.127-2.14C176.665,85.211,177.623,86.611,177.35,88.065z"/>
										<g>
											<path style="fill:#E69773;" d="M171.66,90.06c0,0,2.567-1.446,4.649,0.848"/>
											<path style="fill:#AF4E4A;" d="M176.21,91.8c-0.21-0.023-0.413-0.12-0.567-0.289c-1.532-1.688-3.346-0.776-3.547-0.665
												c-0.434,0.235-0.981,0.08-1.22-0.353c-0.239-0.432-0.088-0.974,0.342-1.216c1.106-0.622,3.727-1.208,5.756,1.025
												c0.334,0.368,0.306,0.937-0.061,1.271C176.714,91.753,176.456,91.828,176.21,91.8z"/>
										</g>
										<g>
											<path style="fill:#E69773;" d="M193.981,92.358c0,0,2.261-0.726,4.136,0.501"/>
											<path style="fill:#AF4E4A;" d="M198.017,93.753c-0.136-0.015-0.271-0.061-0.393-0.141
												c-1.481-0.971-3.355-0.404-3.374-0.396c-0.473,0.148-0.975-0.117-1.126-0.588c-0.149-0.471,0.109-0.975,0.581-1.126
												c0.109-0.035,2.693-0.839,4.904,0.606c0.415,0.271,0.532,0.828,0.26,1.244C198.678,93.645,198.344,93.789,198.017,93.753
												z"/>
										</g>
									</g>
									<path style="fill:#FFFFFF;" d="M168.593,97.999c0.889-0.459,1.975-0.201,2.634,0.551c1.201,1.372,3.868,3.865,7.988,4.751
										c1.011,0.217,1.407,1.466,0.866,2.347c-1.192,1.937-4.127,4.803-9.23,1.682C164.633,103.528,166.275,99.195,168.593,97.999
										z"/>
								</g>
								<path style="fill:#AF4E4A;" d="M180.478,133.277c0,0-21.924-1.007-26.321-10.42c0,0,0.852,19.65,23.996,22.497
									L180.478,133.277z"/>
							</g>
							<path style="fill:#AF4E4A;" d="M157.683,93.151c-0.158,1.422,1.638,2.788,4.01,3.051c2.372,0.263,4.423-0.677,4.581-2.099
								c0.158-1.422-1.638-2.788-4.01-3.051C159.891,90.789,157.84,91.729,157.683,93.151z"/>
						</g>
					</g>
					<g>
						<g>
							<g>
								<g>
									<g>
										<g>
											<g>
												<g>
													<path style="fill:#FDFEFF;" d="M168.998,97.16c-7.347-0.069-13.267-6.102-13.197-13.449
														c0.07-7.346,6.102-13.265,13.45-13.196c7.348,0.07,13.267,6.102,13.197,13.448
														C182.378,91.31,176.346,97.229,168.998,97.16z M169.232,72.481c-6.262-0.06-11.406,4.987-11.465,11.247
														c-0.059,6.262,4.987,11.405,11.25,11.465c6.262,0.059,11.405-4.987,11.464-11.249
														C180.541,77.684,175.494,72.541,169.232,72.481z"/>
												</g>
											</g>
										</g>
									</g>
								</g>
							</g>
						</g>
						<g>
							<g>
								<g>
									<g>
										<g>
											<g>
												<g>
													<path style="fill:#FDFEFF;" d="M199.445,101.37c-7.347-0.07-13.267-6.102-13.197-13.45
														c0.07-7.345,6.102-13.265,13.449-13.196c7.347,0.069,13.267,6.103,13.198,13.448
														C212.825,95.52,206.792,101.439,199.445,101.37z M199.678,76.691c-6.262-0.059-11.405,4.987-11.464,11.248
														c-0.059,6.262,4.987,11.405,11.249,11.464c6.262,0.06,11.405-4.987,11.465-11.249
														C210.987,81.894,205.941,76.751,199.678,76.691z"/>
												</g>
											</g>
										</g>
									</g>
								</g>
							</g>
						</g>
						<g>
							<g>
								<g>
									<g>
										<g>
											<g>
												<g>
													<path style="fill:#FDFEFF;" d="M186.477,87.611c-1.725-2.398-4.233-0.968-4.516-0.796l-1.036-1.671
														c1.476-0.925,4.876-1.842,7.149,1.318L186.477,87.611z"/>
												</g>
											</g>
										</g>
									</g>
								</g>
							</g>
						</g>
						<g>
							<g>
								<g>
									<g>
										<g>
											<g>
												<g>
													<path style="fill:#FDFEFF;" d="M157.872,78.537c-0.404,0.019-0.812-0.112-1.092-0.382
														c-0.141-0.105-2.375-1.672-12.153-2.533c-0.751-0.066-1.285-0.627-1.191-1.252c0.089-0.628,0.792-1.09,1.526-1.013
														c11.252,0.99,13.593,2.953,13.948,3.338c0.459,0.495,0.34,1.211-0.261,1.6
														C158.413,78.445,158.144,78.524,157.872,78.537z"/>
												</g>
											</g>
										</g>
									</g>
								</g>
							</g>
						</g>
					</g>
					<circle style="fill:#6059C9;" cx="197.206" cy="52.831" r="15.248"/>
					<circle style="fill:#6059C9;" cx="176.503" cy="43.855" r="15.248"/>
					<circle style="fill:#6059C9;" cx="155.517" cy="48.381" r="15.248"/>
					<circle style="fill:#6059C9;" cx="146.114" cy="69.582" r="11.639"/>
					<circle style="fill:#6059C9;" cx="139.968" cy="59.814" r="11.639"/>
				</g>
				<g>
					<path style="fill:#750021;" d="M188.524,158.059l-5.034-12.935c-0.191-2.51-2.698-3.692-4.279-2.018l-18.46,19.304
						c-0.151,0.158-0.399,0.173-0.568,0.035l-27.366-22.374c-0.979-0.81-2.608-0.524-3.132,0.55l-7.654,15.694
						c-0.796,1.632-0.555,3.58,0.614,4.969l16.077,19.096c1.434,1.703,4.318,1.904,6.057,0.422l15.169-14.009
						c0.328-0.303,0.842-0.277,1.138,0.057l9.591,10.85c1.052,1.567,3.082,1.45,4.002-0.232l13.042-14.919
						C188.811,161.301,189.118,159.585,188.524,158.059z"/>
				</g>
				<path style="fill:#FDFEFF;" d="M198.918,83.85c1.23-0.62,4.466-2.113,7.049-2.041c0.649,0.016,1.127,0.543,1.068,1.176
					c-0.035,0.383-0.257,0.715-0.572,0.915c-0.206,0.13-0.45,0.205-0.706,0.196c-2.092-0.056-5.236,1.417-6.271,1.99
					c-0.183,0.101-0.376,0.136-0.568,0.142V83.85z"/>
				<path style="fill:#750021;" d="M164.311,180.785c0,1.712-1.388,3.101-3.101,3.101c-1.712,0-3.1-1.388-3.1-3.101
					c0-1.712,1.388-3.1,3.1-3.1C162.923,177.684,164.311,179.073,164.311,180.785z"/>
				<path style="fill:#750021;" d="M164.311,195.185c0,1.712-1.388,3.1-3.101,3.1c-1.712,0-3.1-1.388-3.1-3.1
					c0-1.712,1.388-3.1,3.1-3.1C162.923,192.085,164.311,193.473,164.311,195.185z"/>
				<path style="fill:#750021;" d="M164.311,209.585c0,1.712-1.388,3.101-3.101,3.101c-1.712,0-3.1-1.388-3.1-3.101
					c0-1.712,1.388-3.1,3.1-3.1C162.923,206.485,164.311,207.873,164.311,209.585z"/>
				<g>
					<g>
						<g>
							<g>
								<path style="fill:#E69773;" d="M187.156,303.436l-77.681-44.001l3.065-15.884l-56.277-1.655l-2.933,14.8
									c-5.313,37.114,42.358,55.111,42.358,55.111l76.043,25.55"/>
								<path style="fill:#750021;" d="M109.743,258.947c-0.056,0-0.113-0.005-0.171-0.017c-0.487-0.094-0.807-0.565-0.712-1.053
									l2.939-15.233l7.328,0.059c0.008,0,0.015,0,0.023,0c1.4,0,2.544-1.09,2.609-2.491l1.937-41.269
									c0.023-0.497,0.439-0.89,0.94-0.856c0.496,0.024,0.879,0.444,0.856,0.94l-1.937,41.269
									c-0.111,2.378-2.047,4.253-4.443,4.205l-5.831-0.047l-2.657,13.763C110.542,258.649,110.165,258.947,109.743,258.947z"/>
							</g>
							<path style="fill:#AF4E4A;" d="M90.281,266.615c-0.376,0-0.726-0.237-0.852-0.614c-0.158-0.471,0.096-0.98,0.567-1.138
								l18.963-6.357c0.469-0.155,0.981,0.096,1.138,0.567c0.158,0.47-0.096,0.98-0.567,1.138l-18.963,6.358
								C90.473,266.6,90.376,266.615,90.281,266.615z"/>
						</g>
						<path style="fill:#E69773;" d="M168.78,334.805c1.346,1.912,2.829,3.493,4.418,4.309l25.22,13.747
							c4.511,2.765,10.916,0.481,9.082-3.121c2.84,2.971,7.018,5.212,10.288,1.365c2.054-1.914,1.411-3.985,0.01-5.881
							c2.664,2.652,5.773,4.726,8.73,1.741c3.676-2.777,2.036-6.192-0.376-8.999c2.031,1.605,4.412,2.461,6.623,0.238
							c5.781-6.895-4.135-12.536-9.645-16.634c-2.739-1.747-5.223-3.377-7.535-4.915c3.088-0.854,6.206-1.728,8.782-3.6
							c0.829-0.603,1.649-1.425,1.666-2.451c0.013-0.788-0.473-1.518-1.104-1.991c-0.63-0.473-1.393-0.73-2.145-0.965
							c-7.016-2.189-28.394-4.638-28.394-4.638c-2.398-0.048-4.834,0.109-7.245,0.425"/>
						<path style="fill:#E69773;" d="M213.619,340.802c0.363,0.329,0.756,0.735,1.173,1.185
							C214.355,341.561,213.95,341.163,213.619,340.802z"/>
						<path style="opacity:0.3;fill:#AF4E4A;" d="M215.595,316.657l-13.686-7.509c0,0,16.861,4.129,19.209,5.71L215.595,316.657z"/>
						<path style="fill:#AF4E4A;" d="M217.927,333.223c-0.216-0.277-0.243-0.67-0.042-0.98c0.255-0.39,0.777-0.5,1.168-0.246
							c0.796,0.52,7.808,5.109,8.847,6.303c0.325,0.308,0.27,0.883-0.082,1.19c-0.351,0.305-0.884,0.269-1.19-0.083
							c-0.667-0.766-5.566-4.085-8.497-5.998C218.051,333.358,217.983,333.295,217.927,333.223z"/>
						<path style="fill:#AF4E4A;" d="M210.702,341.526c-0.219-0.28-0.243-0.681-0.033-0.992c0.261-0.385,0.785-0.486,1.171-0.225
							l7.011,4.751c0.387,0.263,0.486,0.786,0.225,1.171c-0.261,0.385-0.785,0.486-1.171,0.225l-7.01-4.751
							C210.819,341.654,210.755,341.594,210.702,341.526z"/>
						<path style="fill:#AF4E4A;" d="M203.116,347.615c-0.223-0.286-0.243-0.696-0.022-1.007c0.27-0.38,0.796-0.468,1.176-0.199
							l3.72,2.643c0.376,0.266,0.468,0.796,0.199,1.176c-0.27,0.38-0.796,0.469-1.176,0.199l-3.72-2.643
							C203.224,347.736,203.165,347.678,203.116,347.615z"/>
					</g>
					<g>
						<g>
							<g>
								<g>
									<g>
										<g>
											<g>
												<g>
													<g>
														<g>
															<g>
																<g>
																	<g>
																		<g>
																			<g>
																				<path style="fill:#2B2B39;" d="M158.404,331.675c0,0,5.228-21.747,17.674-34.654
																					c3.02-0.205,7.004,0.972,9.212,3.186c0,0-13.287,14.275-18.566,36.323
																					C163.222,336.062,160.446,334.431,158.404,331.675z"/>
																			</g>
																		</g>
																	</g>
																</g>
															</g>
														</g>
													</g>
												</g>
											</g>
										</g>
									</g>
								</g>
							</g>
						</g>
						<g>
							<g>
								<g>
									<g>
										<g>
											<g>
												<g>
													<g>
														<g>
															<g>
																<g>
																	<g>
																		<g>
																			<g>
																				<path style="fill:#2B2B39;" d="M183.052,314.905c3.087-6.019,0.71-13.402-5.309-16.489
																					c-6.019-3.087-13.401-0.71-16.488,5.309c-3.087,6.02-0.71,13.402,5.309,16.489
																					C172.582,323.301,179.965,320.925,183.052,314.905z"/>
																			</g>
																		</g>
																	</g>
																</g>
															</g>
														</g>
													</g>
												</g>
											</g>
										</g>
									</g>
								</g>
							</g>
						</g>
						<g>
							<g>
								<g>
									<g>
										<g>
											<g>
												<g>
													<g>
														<g>
															<g>
																<g>
																	<g>
																		<g>
																			<g>
																				<path style="fill:#FFFFFF;" d="M176.176,301.471c-4.326-2.218-9.649-0.504-11.868,3.821
																					c-2.218,4.326-0.504,9.649,3.821,11.868c4.326,2.218,9.649,0.504,11.868-3.822
																					C182.215,309.013,180.502,303.69,176.176,301.471z"/>
																			</g>
																		</g>
																	</g>
																</g>
															</g>
														</g>
													</g>
												</g>
											</g>
										</g>
									</g>
								</g>
							</g>
						</g>
					</g>
				</g>
			</g>
		</g>
		<g>
			<path style="fill:#467B6C;" d="M276.703,109.563c-2.754,2.651-5.009,1.69-5.009-2.132V95.106c0-3.822-3.127-6.95-6.949-6.95
				h-15.771c-3.822,0-6.949-3.127-6.949-6.95V32.492c0-3.822,3.127-6.95,6.949-6.95h73.955c3.822,0,6.949,3.127,6.949,6.95v48.715
				c0,3.822-3.127,6.95-6.949,6.95h-17.021c-3.822,0-9.204,2.166-11.958,4.817L276.703,109.563z"/>
			<g>
				<path style="fill:#FFFFFF;" d="M314.773,45.269H257.13c-1.385,0-2.508-1.123-2.508-2.508l0,0c0-1.385,1.123-2.508,2.508-2.508
					h57.643c1.385,0,2.508,1.123,2.508,2.508l0,0C317.281,44.146,316.159,45.269,314.773,45.269z"/>
				<path style="fill:#FFFFFF;" d="M314.773,57.778H257.13c-1.385,0-2.508-1.123-2.508-2.508l0,0c0-1.385,1.123-2.508,2.508-2.508
					h57.643c1.385,0,2.508,1.123,2.508,2.508l0,0C317.281,56.655,316.159,57.778,314.773,57.778z"/>
				<path style="fill:#FFFFFF;" d="M314.773,70.287H268.97c-1.385,0-2.508-1.123-2.508-2.508l0,0c0-1.385,1.123-2.508,2.508-2.508
					h45.803c1.385,0,2.508,1.123,2.508,2.508l0,0C317.281,69.164,316.159,70.287,314.773,70.287z"/>
			</g>
		</g>
		<g>
			<g>
				<g>
					<path style="fill:#5F5F75;" d="M318.653,241.445H214.194c-3.736,0-7.011,2.495-8.005,6.096l-24.064,87.232h-2.971h-67.016
						c-1.273,0-2.033,1.419-1.326,2.479l5.526,8.289h62.816h119.351l28.155-93.314C328.282,246.856,324.262,241.445,318.653,241.445
						z"/>
					<path style="fill:#2B2B39;" d="M307.48,345.755H188.129l27.035-98c0.994-3.601,4.269-6.096,8.005-6.096h104.459
						c5.609,0,9.629,5.412,8.008,10.782L307.48,345.755z"/>
				</g>
			</g>
			<path style="fill:#F6EEE3;" d="M255.58,297.408c0-7.39,6.013-13.404,13.403-13.404c7.39,0,13.402,6.013,13.402,13.404
				c0,7.39-6.011,13.402-13.402,13.402C261.594,310.811,255.58,304.799,255.58,297.408z M257.624,297.408
				c0,6.264,5.095,11.359,11.36,11.359c6.263,0,11.358-5.095,11.358-11.359c0-6.264-5.095-11.36-11.358-11.36
				C262.719,286.048,257.624,291.145,257.624,297.408z"/>
		</g>
	</g>
	<g>
		<g>
			<g>
				<g>
					<g>
						<g>
							<g>
								<path style="fill:#CCC0B2;" d="M538.304,93.876c-0.179,0-0.361-0.034-0.537-0.105l-6.509-2.646
									c-0.351-0.143-0.63-0.419-0.777-0.768c-0.147-0.349-0.15-0.742-0.007-1.092l2.047-5.032c-1.152-0.79-2.196-1.71-3.119-2.751
									l-4.935,2.08c-0.725,0.305-1.563-0.034-1.869-0.761l-2.73-6.473c-0.147-0.349-0.15-0.742-0.007-1.092
									c0.143-0.351,0.419-0.63,0.768-0.777l4.604-1.941c-0.174-1.21-0.216-2.438-0.126-3.669l-4.525-1.84
									c-0.351-0.143-0.631-0.419-0.778-0.768c-0.147-0.349-0.149-0.742-0.007-1.092l2.647-6.508
									c0.143-0.351,0.419-0.63,0.768-0.777c0.348-0.147,0.741-0.15,1.092-0.007l4.283,1.743c0.92-1.209,1.992-2.283,3.203-3.21
									l-1.941-4.601c-0.306-0.727,0.034-1.563,0.76-1.87l6.474-2.731c0.349-0.147,0.741-0.15,1.092-0.007
									c0.35,0.143,0.63,0.419,0.777,0.767l2.08,4.935c0.815-0.059,1.635-0.06,2.451-0.001l2.152-5.293
									c0.297-0.73,1.129-1.081,1.86-0.785l6.508,2.646c0.351,0.143,0.63,0.419,0.778,0.768c0.147,0.349,0.15,0.742,0.007,1.092
									l-2.055,5.051c1.209,0.921,2.283,1.993,3.21,3.204l4.602-1.941c0.349-0.147,0.741-0.15,1.092-0.007
									c0.351,0.143,0.63,0.419,0.778,0.767l2.73,6.474c0.306,0.726-0.034,1.563-0.761,1.87l-4.933,2.08
									c0.083,1.115,0.058,2.224-0.073,3.316l5.052,2.054c0.73,0.297,1.082,1.129,0.785,1.859l-2.646,6.508
									c-0.142,0.351-0.419,0.63-0.767,0.777c-0.35,0.147-0.743,0.149-1.093,0.007l-5.293-2.154
									c-0.528,0.626-1.1,1.212-1.711,1.755l2.081,4.933c0.306,0.726-0.034,1.563-0.76,1.87l-6.473,2.731
									c-0.35,0.147-0.742,0.149-1.093,0.007c-0.35-0.143-0.63-0.419-0.777-0.767l-1.941-4.604
									c-0.926,0.134-1.86,0.191-2.794,0.172l-2.323,5.712C539.401,93.54,538.868,93.875,538.304,93.876z M533.656,89.017
									l3.864,1.571l2.167-5.329c0.235-0.578,0.809-0.937,1.44-0.884c1.402,0.116,2.81,0.024,4.185-0.274
									c0.675-0.146,1.351,0.208,1.618,0.84l1.829,4.34l3.844-1.621l-1.937-4.593c-0.251-0.595-0.071-1.284,0.438-1.681
									c1.025-0.798,1.937-1.735,2.712-2.783c0.387-0.525,1.081-0.72,1.686-0.474l4.963,2.019l1.571-3.864l-4.776-1.942
									c-0.631-0.257-0.993-0.923-0.864-1.592c0.291-1.512,0.33-3.078,0.114-4.653c-0.087-0.64,0.265-1.258,0.859-1.509
									l4.593-1.937l-1.622-3.844l-4.339,1.83c-0.632,0.267-1.365,0.045-1.744-0.527c-1.075-1.623-2.439-2.985-4.055-4.049
									c-0.569-0.375-0.794-1.099-0.537-1.73l1.943-4.776l-3.864-1.571l-2.018,4.963c-0.246,0.605-0.876,0.964-1.517,0.876
									c-1.288-0.178-2.595-0.178-3.885,0c-0.639,0.085-1.259-0.264-1.509-0.859l-1.936-4.594l-3.844,1.621l1.83,4.339
									c0.267,0.632,0.045,1.365-0.527,1.744c-1.623,1.076-2.986,2.44-4.049,4.055c-0.375,0.569-1.101,0.793-1.73,0.537
									l-4.008-1.631l-1.572,3.864l4.196,1.707c0.604,0.246,0.965,0.87,0.876,1.516c-0.23,1.673-0.168,3.342,0.182,4.964
									c0.145,0.671-0.208,1.35-0.841,1.616l-4.34,1.83l1.621,3.843l4.595-1.937c0.593-0.251,1.284-0.071,1.68,0.438
									c1.116,1.433,2.484,2.63,4.065,3.556c0.612,0.358,0.868,1.112,0.601,1.769L533.656,89.017z M542.29,77.92
									c-3.07,0-5.993-1.807-7.259-4.809c-1.685-3.996,0.195-8.619,4.191-10.305c3.997-1.686,8.62,0.194,10.306,4.192
									c0.815,1.934,0.828,4.072,0.036,6.019c-0.792,1.948-2.294,3.47-4.228,4.286C544.342,77.722,543.308,77.92,542.29,77.92z
									 M542.274,65.042c-0.649,0-1.307,0.127-1.941,0.394c-2.547,1.075-3.745,4.02-2.671,6.566c1.074,2.546,4.02,3.744,6.566,2.67
									c0,0,0.001,0,0.001,0c1.231-0.519,2.187-1.488,2.692-2.731c0.505-1.242,0.497-2.604-0.022-3.835
									C546.092,66.194,544.229,65.042,542.274,65.042z"/>
							</g>
						</g>
					</g>
				</g>
			</g>
		</g>
	</g>
	<g>
		<g>
			<g>
				<path style="fill:#CCC0B2;" d="M301.69,434.607c-11.229,0-20.365-9.135-20.365-20.365c0-11.229,9.136-20.365,20.365-20.365
					s20.365,9.135,20.365,20.365C322.055,425.471,312.919,434.607,301.69,434.607z M301.69,396.732
					c-9.655,0-17.511,7.855-17.511,17.51c0,9.655,7.855,17.511,17.511,17.511c9.655,0,17.511-7.855,17.511-17.511
					C319.201,404.587,311.345,396.732,301.69,396.732z"/>
			</g>
		</g>
		<g>
			<g>
				<path style="fill:#CCC0B2;" d="M296.139,423.802c-0.026,0-0.052-0.001-0.078-0.002c-0.405-0.022-0.781-0.216-1.035-0.532
					l-3.694-4.604c-0.493-0.615-0.395-1.513,0.22-2.006c0.615-0.493,1.513-0.394,2.006,0.22l2.698,3.363l15.139-15.14
					c0.558-0.557,1.461-0.557,2.018,0c0.557,0.557,0.557,1.461,0,2.018l-16.265,16.265
					C296.88,423.652,296.517,423.802,296.139,423.802z"/>
			</g>
		</g>
	</g>
	<g>
		<g>
			<g>
				<path style="fill:#CCC0B2;" d="M101.133,465.185l-14.544-8.953H51.789c-3.267,0-5.924-2.658-5.924-5.925v-25.245
					c0-3.267,2.658-5.924,5.924-5.924H93.1c3.267,0,5.924,2.658,5.924,5.924v25.619l4.213,12.843
					c0.187,0.569-0.002,1.194-0.472,1.565c-0.258,0.203-0.571,0.307-0.884,0.307C101.623,465.396,101.363,465.326,101.133,465.185z
					 M51.789,421.992c-1.693,0-3.07,1.378-3.07,3.07v25.245c0,1.693,1.377,3.07,3.07,3.07h35.204c0.264,0,0.523,0.073,0.748,0.212
					l11.569,7.121l-3.069-9.357c-0.047-0.143-0.071-0.294-0.071-0.445v-25.847c0-1.693-1.377-3.07-3.07-3.07H51.789z"/>
			</g>
		</g>
		<g>
			<g>
				<g>
					<path style="fill:#CCC0B2;" d="M80.557,438.008c0,1.878,1.523,3.401,3.402,3.401c1.879,0,3.401-1.523,3.401-3.401
						c0-1.879-1.523-3.401-3.401-3.401C82.08,434.607,80.557,436.129,80.557,438.008z"/>
				</g>
			</g>
			<g>
				<g>
					<path style="fill:#CCC0B2;" d="M68.26,438.008c0,1.878,1.523,3.401,3.401,3.401c1.878,0,3.401-1.523,3.401-3.401
						c0-1.879-1.523-3.401-3.401-3.401C69.782,434.607,68.26,436.129,68.26,438.008z"/>
				</g>
			</g>
			<g>
				<g>
					<path style="fill:#CCC0B2;" d="M55.962,438.008c0,1.878,1.523,3.401,3.401,3.401c1.878,0,3.401-1.523,3.401-3.401
						c0-1.879-1.523-3.401-3.401-3.401C57.485,434.607,55.962,436.129,55.962,438.008z"/>
				</g>
			</g>
		</g>
	</g>
</g>
</svg>
