<?xml version="1.0" encoding="utf-8"?>
<!-- Generator: Adobe Illustrator 27.5.0, SVG Export Plug-In . SVG Version: 6.00 Build 0)  -->
<svg version="1.1" xmlns="http://www.w3.org/2000/svg" xmlns:xlink="http://www.w3.org/1999/xlink" x="0px" y="0px"
	 viewBox="0 0 500 500" style="enable-background:new 0 0 500 500;" xml:space="preserve">
<g id="Background_Complete">
	<g>
		<rect y="382.398" style="fill:#EBEBEB;" width="500" height="0.25"/>
		<rect x="416.779" y="398.494" style="fill:#EBEBEB;" width="33.122" height="0.25"/>
		<rect x="322.527" y="401.208" style="fill:#EBEBEB;" width="8.693" height="0.25"/>
		<rect x="396.586" y="389.208" style="fill:#EBEBEB;" width="19.192" height="0.25"/>
		<rect x="52.459" y="390.888" style="fill:#EBEBEB;" width="43.193" height="0.25"/>
		<rect x="104.556" y="390.888" style="fill:#EBEBEB;" width="6.333" height="0.25"/>
		<rect x="131.471" y="395.111" style="fill:#EBEBEB;" width="93.676" height="0.25"/>
		<path style="fill:#EBEBEB;" d="M237.014,337.8H43.915c-3.147,0-5.708-2.561-5.708-5.708V60.66c0-3.147,2.561-5.708,5.708-5.708
			h193.099c3.146,0,5.707,2.561,5.707,5.708v271.432C242.721,335.239,240.16,337.8,237.014,337.8z M43.915,55.203
			c-3.01,0-5.458,2.448-5.458,5.458v271.432c0,3.01,2.448,5.458,5.458,5.458h193.099c3.009,0,5.457-2.448,5.457-5.458V60.66
			c0-3.009-2.448-5.458-5.457-5.458H43.915z"/>
		<path style="fill:#EBEBEB;" d="M453.31,337.8H260.212c-3.147,0-5.707-2.561-5.707-5.708V60.66c0-3.147,2.561-5.708,5.707-5.708
			H453.31c3.148,0,5.708,2.561,5.708,5.708v271.432C459.019,335.239,456.458,337.8,453.31,337.8z M260.212,55.203
			c-3.009,0-5.457,2.448-5.457,5.458v271.432c0,3.01,2.448,5.458,5.457,5.458H453.31c3.01,0,5.458-2.448,5.458-5.458V60.66
			c0-3.009-2.448-5.458-5.458-5.458H260.212z"/>
	</g>
	<g>
		<g>
			<path style="fill:#EBEBEB;" d="M327.667,203.825c-7.66-10.663-20.622-14.458-28.949-8.475c-8.327,5.982-8.868,19.477-1.207,30.14
				c7.661,10.664,20.621,14.458,28.949,8.475C334.787,227.982,335.328,214.488,327.667,203.825z"/>
			<path style="fill:#EBEBEB;" d="M395.433,155.699l-26.47-37.782c0,0-11.565,34.547-32.16,49.342l13.424,18.685l2.113,2.942
				l13.444,18.713c20.595-14.795,57.017-14.742,57.017-14.742L395.433,155.699z"/>
			<path style="fill:#EBEBEB;" d="M328.857,227.572c0,0,18.436,21.134,34.177,27.825c1.107,0.47,2.389,0.012,3.033-1.003
				l10.825-17.075c0.881-1.39,0.22-3.23-1.351-3.718c-6.549-2.031-21.871-7.473-31.378-16.419
				C331.815,205.563,328.857,227.572,328.857,227.572z"/>
			<path style="fill:#F0F0F0;" d="M422.718,194.042c-4.72,3.391-20.835-10.965-35.994-32.066c-15.159-21.1-23.62-40.955-18.9-44.346
				c4.72-3.391,20.835,10.965,35.994,32.066C418.976,170.797,427.438,190.652,422.718,194.042z"/>
			<path style="fill:#E6E6E6;" d="M419.907,187.629c-3.53,2.536-16.111-8.767-28.685-25.649c-0.727-0.95-1.445-1.95-2.164-2.95
				c-0.866-1.206-1.711-2.382-2.507-3.552c-11.729-17.133-18.272-32.326-14.771-34.841c3.766-2.705,17.605,10.1,30.9,28.606
				C415.953,167.72,423.673,184.924,419.907,187.629z"/>
			<path style="fill:#E0E0E0;" d="M324.893,238.382c0,0-5.852-3.23-17.653-19.657c-12.77-17.776-13.083-23.126-13.083-23.126
				l45.97-33.026c0,0,1.371,6.823,13.347,23.494c11.89,16.55,17.389,19.289,17.389,19.289L324.893,238.382z"/>
			<path style="fill:#FFFFFF;" d="M391.222,161.98c-0.727-0.95-1.445-1.95-2.164-2.95c-0.866-1.206-1.711-2.382-2.507-3.552
				l4.9-2.182c1.119-0.491,2.232,0.002,2.93,0.973l0.486,0.677c0.698,0.971,0.81,2.183-0.013,3.087L391.222,161.98z"/>
			<path style="fill:#FAFAFA;" d="M391.222,161.98c-0.727-0.95-1.445-1.95-2.164-2.95c-0.866-1.206-1.711-2.382-2.507-3.552
				l4.9-2.182c1.119-0.491,2.232,0.002,2.93,0.973l0.486,0.677c0.698,0.971,0.81,2.183-0.013,3.087L391.222,161.98z"/>
		</g>
		<g>
			<g>
				
					<rect x="191.674" y="231.649" transform="matrix(-1 -1.224647e-16 1.224647e-16 -1 400.6434 515.9639)" style="fill:#EBEBEB;" width="17.295" height="52.666"/>
				
					<rect x="159.63" y="216.514" transform="matrix(-1 -1.224647e-16 1.224647e-16 -1 336.5554 500.8286)" style="fill:#EBEBEB;" width="17.295" height="67.801"/>
				
					<rect x="127.587" y="190.007" transform="matrix(-1 -1.224647e-16 1.224647e-16 -1 272.4676 474.322)" style="fill:#EBEBEB;" width="17.295" height="94.308"/>
				
					<rect x="95.543" y="158.469" transform="matrix(-1 -1.224647e-16 1.224647e-16 -1 208.3796 442.7842)" style="fill:#EBEBEB;" width="17.295" height="125.846"/>
			</g>
			<g>
				<path style="fill:#EBEBEB;" d="M172.73,203.681c-23.934-16.067-58.005-44.682-84.409-89.753l8.629-5.055
					c25.365,43.3,58.074,70.83,81.047,86.3c24.852,16.735,43.999,23.372,44.36,23.495l-3.201,9.475
					C218.335,227.864,198.742,221.144,172.73,203.681z M222.358,218.667c0.001,0.001,0.003,0.001,0.003,0.002l-1.604,4.735
					L222.358,218.667z"/>
			</g>
			<g>
				<polygon style="fill:#EBEBEB;" points="88.286,102.772 108.314,112.494 85.814,124.897 				"/>
			</g>
		</g>
		<g>
			
				<ellipse transform="matrix(0.2298 -0.9732 0.9732 0.2298 8.1645 246.5103)" style="fill:#EBEBEB;" cx="159.822" cy="118.097" rx="16.241" ry="16.241"/>
			<circle style="fill:#E0E0E0;" cx="159.822" cy="118.097" r="12.579"/>
			<g>
				<path style="fill:#F0F0F0;" d="M160.694,123.479v1.685h-1.503v-1.639c-1.489-0.09-2.917-0.556-3.744-1.203l0.827-1.834
					c0.752,0.556,1.834,0.962,2.917,1.067v-2.51c-1.669-0.406-3.533-0.962-3.533-3.112c0-1.594,1.157-2.962,3.533-3.232v-1.669
					h1.503v1.639c1.127,0.09,2.225,0.391,3.052,0.917l-0.752,1.85c-0.767-0.437-1.549-0.692-2.3-0.782v2.556
					c1.669,0.391,3.503,0.947,3.503,3.067C164.197,121.84,163.054,123.194,160.694,123.479z M159.19,116.834v-2.135
					c-0.797,0.181-1.113,0.616-1.113,1.113C158.078,116.338,158.529,116.623,159.19,116.834z M161.777,120.457
					c0-0.526-0.437-0.812-1.083-1.037v2.074C161.445,121.329,161.777,120.938,161.777,120.457z"/>
			</g>
		</g>
		<g>
			<circle style="fill:#EBEBEB;" cx="61.429" cy="253.835" r="8.121"/>
			<path style="fill:#E0E0E0;" d="M67.718,253.835c0,3.473-2.816,6.289-6.289,6.289c-3.474,0-6.289-2.816-6.289-6.289
				c0-3.474,2.816-6.289,6.289-6.289C64.902,247.545,67.718,250.361,67.718,253.835z"/>
			<g>
				<path style="fill:#F0F0F0;" d="M61.865,256.526v0.842h-0.752v-0.82c-0.744-0.045-1.458-0.278-1.872-0.601l0.413-0.917
					c0.376,0.278,0.917,0.481,1.458,0.534v-1.255c-0.835-0.203-1.767-0.481-1.767-1.556c0-0.797,0.579-1.481,1.767-1.616v-0.834
					h0.752v0.819c0.564,0.045,1.112,0.196,1.526,0.459l-0.376,0.925c-0.383-0.218-0.774-0.346-1.15-0.391v1.278
					c0.834,0.195,1.752,0.473,1.752,1.534C63.616,255.706,63.045,256.383,61.865,256.526z M61.113,253.203v-1.067
					c-0.399,0.09-0.556,0.308-0.556,0.556C60.557,252.955,60.782,253.098,61.113,253.203z M62.406,255.015
					c0-0.263-0.218-0.406-0.541-0.518v1.037C62.241,255.451,62.406,255.255,62.406,255.015z"/>
			</g>
		</g>
		<g>
			<circle style="fill:#EBEBEB;" cx="236.232" cy="147.386" r="8.121"/>
			<path style="fill:#E0E0E0;" d="M242.522,147.386c0,3.474-2.816,6.289-6.289,6.289c-3.474,0-6.29-2.816-6.29-6.289
				s2.816-6.289,6.29-6.289C239.706,141.096,242.522,143.912,242.522,147.386z"/>
			<g>
				<path style="fill:#F0F0F0;" d="M236.668,150.077v0.842h-0.752v-0.819c-0.744-0.045-1.458-0.278-1.872-0.601l0.413-0.917
					c0.376,0.278,0.917,0.481,1.458,0.533v-1.255c-0.835-0.203-1.766-0.481-1.766-1.556c0-0.797,0.579-1.481,1.766-1.616v-0.834
					h0.752v0.819c0.564,0.045,1.113,0.196,1.526,0.458l-0.376,0.925c-0.383-0.218-0.774-0.346-1.15-0.391v1.278
					c0.834,0.196,1.752,0.473,1.752,1.534C238.42,149.257,237.848,149.934,236.668,150.077z M235.917,146.754v-1.067
					c-0.398,0.09-0.556,0.308-0.556,0.556C235.36,146.506,235.586,146.649,235.917,146.754z M237.21,148.566
					c0-0.263-0.218-0.406-0.541-0.519v1.037C237.044,149.002,237.21,148.806,237.21,148.566z"/>
			</g>
		</g>
		<g>
			
				<ellipse transform="matrix(0.7071 -0.7071 0.7071 0.7071 -187.2508 190.4005)" style="fill:#EBEBEB;" cx="136.208" cy="321.232" rx="12.858" ry="12.858"/>
			
				<ellipse transform="matrix(0.1602 -0.9871 0.9871 0.1602 -202.6938 404.2259)" style="fill:#E0E0E0;" cx="136.208" cy="321.232" rx="9.958" ry="9.958"/>
			<g>
				<path style="fill:#F0F0F0;" d="M136.898,325.492v1.333h-1.19v-1.298c-1.178-0.071-2.309-0.441-2.964-0.952l0.655-1.452
					c0.595,0.44,1.452,0.762,2.309,0.845v-1.987c-1.321-0.322-2.797-0.762-2.797-2.464c0-1.262,0.916-2.345,2.797-2.559v-1.321h1.19
					v1.297c0.893,0.071,1.762,0.31,2.416,0.726l-0.595,1.464c-0.607-0.346-1.226-0.548-1.821-0.619v2.024
					c1.321,0.31,2.773,0.75,2.773,2.428C139.672,324.195,138.767,325.267,136.898,325.492z M135.708,320.232v-1.69
					c-0.631,0.143-0.881,0.488-0.881,0.881C134.827,319.839,135.185,320.065,135.708,320.232z M137.756,323.1
					c0-0.416-0.345-0.642-0.857-0.821v1.642C137.494,323.791,137.756,323.481,137.756,323.1z"/>
			</g>
		</g>
		<g>
			<path style="fill:#E0E0E0;" d="M393.988,315.327v-7.184l-3.699-0.348c-0.499-2.408-1.454-4.647-2.759-6.635l2.376-2.87
				l-5.079-5.08l-2.87,2.376c-1.988-1.305-4.227-2.26-6.635-2.759l-0.348-3.699h-7.184l-0.348,3.699
				c-2.408,0.5-4.647,1.454-6.635,2.759l-2.87-2.376l-5.08,5.08l2.376,2.87c-1.305,1.988-2.259,4.227-2.759,6.635l-3.699,0.348
				v7.184l3.699,0.348c0.499,2.408,1.454,4.647,2.759,6.635l-2.376,2.87l5.08,5.08l2.87-2.376c1.988,1.305,4.227,2.259,6.635,2.759
				l0.348,3.699h7.184l0.348-3.699c2.408-0.499,4.647-1.454,6.635-2.759l2.87,2.376l5.079-5.08l-2.376-2.87
				c1.305-1.989,2.259-4.227,2.759-6.636L393.988,315.327z M371.381,321.461c-5.371,0-9.725-4.354-9.725-9.725
				c0-5.371,4.354-9.725,9.725-9.725c5.371,0,9.725,4.354,9.725,9.725C381.106,317.107,376.752,321.461,371.381,321.461z"/>
			<path style="fill:#E0E0E0;" d="M389.348,262.911c-1.887,0.391-3.641,1.139-5.2,2.162l-2.249-1.862l-3.981,3.98l1.862,2.249
				c-1.022,1.558-1.77,3.313-2.162,5.199l-2.898,0.273v5.629l2.898,0.273c0.391,1.887,1.139,3.641,2.162,5.2l-1.862,2.249
				l3.981,3.98l2.249-1.862c1.559,1.022,3.313,1.771,5.2,2.162l0.273,2.898h5.629l0.273-2.898c1.887-0.391,3.641-1.139,5.199-2.162
				l2.249,1.862l3.981-3.98l-1.862-2.249c1.022-1.558,1.77-3.313,2.162-5.2l2.898-0.273v-5.629l-2.898-0.273
				c-0.391-1.887-1.139-3.642-2.162-5.2l1.862-2.249l-3.981-3.98l-2.249,1.862c-1.558-1.022-3.312-1.771-5.199-2.162l-0.273-2.898
				h-5.629L389.348,262.911z M400.056,277.728c0,4.208-3.412,7.621-7.621,7.621c-4.209,0-7.621-3.412-7.621-7.621
				c0-4.209,3.412-7.621,7.621-7.621C396.644,270.107,400.056,273.519,400.056,277.728z"/>
			<path style="fill:#E0E0E0;" d="M401.907,293.379l-1.889-1.564l-3.344,3.344l1.564,1.889c-0.859,1.309-1.487,2.783-1.815,4.367
				l-2.435,0.229v4.728l2.435,0.23c0.329,1.585,0.957,3.059,1.816,4.367l-1.564,1.889l3.344,3.344l1.889-1.564
				c1.309,0.859,2.783,1.487,4.368,1.816l0.229,2.435l4.728,0l0.229-2.434c1.585-0.329,3.059-0.957,4.368-1.816l1.889,1.564
				l3.344-3.344l-1.564-1.889c0.859-1.309,1.487-2.782,1.816-4.367l2.434-0.23v-4.728l-2.434-0.229
				c-0.329-1.585-0.957-3.059-1.816-4.367l1.564-1.889l-3.344-3.344l-1.889,1.564c-1.309-0.859-2.782-1.487-4.368-1.816
				l-0.229-2.435h-4.728l-0.229,2.435C404.69,291.892,403.216,292.52,401.907,293.379z M415.269,304.008
				c0,3.535-2.866,6.401-6.401,6.401c-3.535,0-6.401-2.865-6.401-6.401c0-3.535,2.866-6.401,6.401-6.401
				C412.403,297.607,415.269,300.473,415.269,304.008z"/>
			<path style="fill:#E0E0E0;" d="M302.982,91.226l-1.889-1.564l-3.344,3.344l1.564,1.889c-0.859,1.309-1.487,2.783-1.816,4.367
				l-2.435,0.229v4.728l2.435,0.229c0.329,1.585,0.957,3.059,1.816,4.367l-1.564,1.889l3.344,3.344l1.889-1.564
				c1.309,0.859,2.783,1.487,4.367,1.816l0.229,2.435l4.728-0.001l0.229-2.434c1.585-0.329,3.059-0.957,4.367-1.816l1.889,1.564
				l3.344-3.344l-1.564-1.889c0.859-1.309,1.487-2.782,1.816-4.367l2.434-0.229v-4.728l-2.434-0.229
				c-0.329-1.585-0.957-3.059-1.816-4.367l1.564-1.889l-3.344-3.344l-1.889,1.564c-1.309-0.859-2.782-1.487-4.367-1.816
				l-0.229-2.435h-4.728l-0.229,2.435C305.765,89.739,304.291,90.367,302.982,91.226z M316.344,101.856
				c0,3.535-2.866,6.401-6.401,6.401c-3.535,0-6.401-2.865-6.401-6.401c0-3.535,2.866-6.401,6.401-6.401
				C313.478,95.455,316.344,98.321,316.344,101.856z"/>
			<path style="fill:#E0E0E0;" d="M413.791,109.993l-1.026-0.849l-1.816,1.816l0.849,1.026c-0.466,0.711-0.808,1.511-0.986,2.372
				l-1.323,0.124v2.568l1.322,0.125c0.178,0.861,0.52,1.661,0.986,2.372l-0.849,1.026l1.816,1.816l1.026-0.849
				c0.711,0.466,1.511,0.808,2.372,0.986l0.125,1.322l2.568,0l0.124-1.322c0.861-0.179,1.661-0.52,2.372-0.986l1.026,0.849
				l1.816-1.816l-0.849-1.026c0.466-0.711,0.808-1.511,0.986-2.372l1.322-0.125v-2.568l-1.322-0.124
				c-0.179-0.861-0.52-1.661-0.986-2.372l0.849-1.026l-1.816-1.816l-1.026,0.849c-0.711-0.466-1.511-0.808-2.372-0.986l-0.124-1.322
				h-2.568l-0.125,1.323C415.303,109.186,414.502,109.527,413.791,109.993z M421.048,115.767c0,1.92-1.556,3.476-3.476,3.476
				c-1.92,0-3.476-1.556-3.476-3.476c0-1.92,1.557-3.476,3.476-3.476C419.492,112.29,421.048,113.846,421.048,115.767z"/>
			<path style="fill:#E0E0E0;" d="M268.713,249.242l-1.026-0.849l-1.816,1.816l0.849,1.026c-0.466,0.711-0.808,1.511-0.986,2.372
				l-1.323,0.125v2.568l1.322,0.125c0.178,0.861,0.52,1.661,0.986,2.372l-0.849,1.026l1.816,1.816l1.026-0.849
				c0.711,0.466,1.511,0.807,2.372,0.986l0.125,1.322l2.568,0l0.124-1.322c0.861-0.178,1.661-0.52,2.372-0.986l1.026,0.849
				l1.816-1.816l-0.849-1.026c0.466-0.711,0.808-1.511,0.986-2.372l1.322-0.125v-2.568l-1.322-0.125
				c-0.179-0.861-0.52-1.661-0.986-2.372l0.849-1.026l-1.816-1.816l-1.026,0.849c-0.711-0.466-1.511-0.808-2.372-0.986l-0.124-1.322
				h-2.568l-0.125,1.323C270.224,248.434,269.424,248.775,268.713,249.242z M275.97,255.015c0,1.92-1.556,3.476-3.476,3.476
				c-1.92,0-3.476-1.556-3.476-3.476c0-1.92,1.556-3.476,3.476-3.476C274.414,251.538,275.97,253.095,275.97,255.015z"/>
		</g>
	</g>
</g>
<g id="Background_Simple" style="display:none;">
	<g style="display:inline;">
		<path style="fill:#407BFF;" d="M83.864,118.232c27.919-59.449,127.059-51.062,165.317-9.255
			c38.258,41.806,50.696,68.599,85.208,52.983c34.512-15.616,78.518-11.44,81.042,38.164s-37.913,108.263-102.09,125.615
			c-64.177,17.352-64.161,78.759-149.1,66.368c-46.31-6.756-47.365-56.86-40.825-98.301
			C129.957,252.365,51.486,187.175,83.864,118.232z"/>
		<path style="opacity:0.9;fill:#FFFFFF;" d="M83.864,118.232c27.919-59.449,127.059-51.062,165.317-9.255
			c38.258,41.806,50.696,68.599,85.208,52.983c34.512-15.616,78.518-11.44,81.042,38.164s-37.913,108.263-102.09,125.615
			c-64.177,17.352-64.161,78.759-149.1,66.368c-46.31-6.756-47.365-56.86-40.825-98.301
			C129.957,252.365,51.486,187.175,83.864,118.232z"/>
	</g>
</g>
<g id="Shadow_1_">
	<ellipse id="_x3C_Path_x3E__359_" style="fill:#F5F5F5;" cx="250" cy="416.238" rx="193.889" ry="11.323"/>
</g>
<g id="Plant_1">
	<g>
		<g>
			<path style="fill:#407BFF;" d="M104.437,341.977c-0.21,1.47,3.777,2.438,7.028,2.98c-0.265,2.669-2.041,5.366-4.494,7.886
				c-3.086-1.738-7.49-4.036-8.302-3.475c-0.886,0.613,3.624,3.529,6.445,5.244c-1.984,1.761-4.218,3.402-6.389,4.84
				c-1.383-1.292-3.002-2.426-3.967-1.813c-1.001,0.637-0.73,2.636-0.236,4.42c-3.356,1.957-5.87,3.147-5.87,3.147
				s-1.409-4.271-2.242-9.53c0.169-0.334,0.338-0.672,0.492-1.029c0.541-1.251,0.014-1.783-0.879-1.959
				c-0.231-2.302-0.297-4.669-0.055-6.865c3.799-0.797,8.418-2.272,6.688-4.55c-1.044-1.374-2.954-1.529-4.942-1.185
				c0.278-0.458,0.586-0.89,0.938-1.278c6.914-7.618,11.737,0,11.737,0c4.018-3.349,9.662-2.442,10.882,2.79
				C109.015,341.021,104.696,340.161,104.437,341.977z"/>
			<path style="opacity:0.3;fill:#FFFFFF;enable-background:new    ;" d="M104.437,341.977c-0.21,1.47,3.777,2.438,7.028,2.98
				c-0.265,2.669-2.041,5.366-4.494,7.886c-3.086-1.738-7.49-4.036-8.302-3.475c-0.886,0.613,3.624,3.529,6.445,5.244
				c-1.984,1.761-4.218,3.402-6.389,4.84c-1.383-1.292-3.002-2.426-3.967-1.813c-1.001,0.637-0.73,2.636-0.236,4.42
				c-3.356,1.957-5.87,3.147-5.87,3.147s-1.409-4.271-2.242-9.53c0.169-0.334,0.338-0.672,0.492-1.029
				c0.541-1.251,0.014-1.783-0.879-1.959c-0.231-2.302-0.297-4.669-0.055-6.865c3.799-0.797,8.418-2.272,6.688-4.55
				c-1.044-1.374-2.954-1.529-4.942-1.185c0.278-0.458,0.586-0.89,0.938-1.278c6.914-7.618,11.737,0,11.737,0
				c4.018-3.349,9.662-2.442,10.882,2.79C109.015,341.021,104.696,340.161,104.437,341.977z"/>
		</g>
		<g>
			<g>
				<path style="fill:#407BFF;" d="M95.81,397.963l0.997-0.082c-0.042-0.515-4.094-51.525,7.354-56.334
					c1.229-0.517,2.365-0.488,3.47,0.087c4.136,2.151,6.119,11.082,6.138,11.173l0.978-0.213c-0.084-0.386-2.102-9.478-6.653-11.847
					c-1.367-0.711-2.82-0.752-4.32-0.122C91.663,345.712,95.635,395.832,95.81,397.963z"/>
			</g>
			<g>
				<path style="fill:#407BFF;" d="M94.367,396.858c0.203-2.295,4.875-56.267-3.862-61.997c-2.095-1.373-3.962-1.667-5.549-0.863
					c-4.129,2.082-4.671,10.91-4.692,11.284l0.998,0.057c0.005-0.086,0.529-8.626,4.145-10.449c1.244-0.625,2.775-0.357,4.55,0.808
					c8.242,5.405,3.463,60.517,3.414,61.073L94.367,396.858z"/>
			</g>
			<g>
				<path style="fill:#407BFF;" d="M93.054,401.221c0.065-1.757,1.504-43.071-6.452-46.688c-1.573-0.715-3.166-0.728-4.732-0.038
					c-5.46,2.402-8.832,12.577-8.973,13.009l0.951,0.311c0.033-0.102,3.373-10.183,8.425-12.404
					c1.313-0.576,2.595-0.567,3.915,0.033c6.101,2.773,6.304,33.958,5.867,45.74L93.054,401.221z"/>
			</g>
			<g>
				<path style="fill:#407BFF;" d="M95.079,399.331l0.993-0.113c-1.402-12.296-4.083-45.062,0.297-48.97
					c0.653-0.584,1.238-0.764,1.792-0.554c2.935,1.126,4.722,11.783,5.163,15.795l0.994-0.109
					c-0.169-1.538-1.769-15.073-5.798-16.619c-0.922-0.354-1.869-0.105-2.816,0.741C90.043,354.553,94.87,397.505,95.079,399.331z"
					/>
			</g>
		</g>
		<g>
			<polygon style="fill:#407BFF;" points="111.766,376.021 75.839,376.021 78.839,416.265 108.766,416.265 			"/>
			<polygon style="opacity:0.2;fill:#FFFFFF;enable-background:new    ;" points="100.854,376.021 99.854,416.265 78.839,416.265 
				75.839,376.021 			"/>
		</g>
		<g>
			<path style="fill:#407BFF;" d="M106.872,361.253c0.374,0.979,3.165,0.209,5.356-0.572c0.752,1.737,0.581,4.009-0.068,6.404
				c-2.499-0.014-6.003,0.079-6.311,0.703c-0.336,0.682,3.445,0.934,5.772,1.024c-0.62,1.766-1.435,3.544-2.281,5.175
				c-1.296-0.323-2.684-0.467-3.068,0.242c-0.399,0.736,0.453,1.876,1.37,2.807c-1.399,2.357-2.541,3.953-2.541,3.953
				s-2.333-2.151-4.65-5.109c-0.01-0.264-0.022-0.53-0.049-0.803c-0.095-0.957-0.603-1.105-1.214-0.907
				c-0.932-1.341-1.784-2.777-2.388-4.215c2.07-1.794,4.413-4.287,2.565-5.099c-1.115-0.49-2.346,0.069-3.454,0.963
				c0.014-0.378,0.056-0.749,0.14-1.11c1.652-7.069,7.239-4.024,7.239-4.024c1.33-3.443,5.121-4.819,7.668-2.01
				C109.368,359.094,106.409,360.044,106.872,361.253z"/>
			<path style="opacity:0.3;fill:#FFFFFF;enable-background:new    ;" d="M106.872,361.253c0.374,0.979,3.165,0.209,5.356-0.572
				c0.752,1.737,0.581,4.009-0.068,6.404c-2.499-0.014-6.003,0.079-6.311,0.703c-0.336,0.682,3.445,0.934,5.772,1.024
				c-0.62,1.766-1.435,3.544-2.281,5.175c-1.296-0.323-2.684-0.467-3.068,0.242c-0.399,0.736,0.453,1.876,1.37,2.807
				c-1.399,2.357-2.541,3.953-2.541,3.953s-2.333-2.151-4.65-5.109c-0.01-0.264-0.022-0.53-0.049-0.803
				c-0.095-0.957-0.603-1.105-1.214-0.907c-0.932-1.341-1.784-2.777-2.388-4.215c2.07-1.794,4.413-4.287,2.565-5.099
				c-1.115-0.49-2.346,0.069-3.454,0.963c0.014-0.378,0.056-0.749,0.14-1.11c1.652-7.069,7.239-4.024,7.239-4.024
				c1.33-3.443,5.121-4.819,7.668-2.01C109.368,359.094,106.409,360.044,106.872,361.253z"/>
		</g>
		<g>
			<path style="fill:#407BFF;" d="M80.196,366.031c1.133,0.084,2.22,0.344,3.283,0.691c0.277-0.759,0.458-1.55,0.484-2.377
				c0.228-7.246-4.959-4.191-7.7-6.32c-1.367-1.062-3.041-1.744-4.586-1.438c0.231,0.399,0.443,0.812,0.62,1.24
				c0.287,0.694-0.166,1.417-0.877,1.55c-0.669,0.125-1.42,0.067-2.035-0.241c-0.192-0.096-0.353-0.236-0.523-0.362
				c-0.383,0.647-0.722,1.439-0.995,2.423c-0.279,1.007-0.423,2.051-0.469,3.099c0.408,0.091,0.813,0.2,1.212,0.342
				c0.623,0.221,0.956,1.217,0.454,1.722c-0.441,0.443-0.946,0.795-1.495,1.049c0.179,1.194,0.512,2.325,0.912,3.396
				c0.123,0.019,0.247,0.033,0.369,0.057c0.264,0.052,0.524,0.12,0.782,0.193c0.148,0.042,0.295,0.092,0.434,0.159
				c0.359,0.17,0.621,0.477,0.677,0.878c0.056,0.395-0.109,0.804-0.427,1.046c-0.169,0.129-0.355,0.23-0.539,0.332
				c0.826,1.307,1.803,2.343,2.87,2.896c0,0,1.322-0.577,3.052-1.613c-0.216-0.29-0.433-0.58-0.634-0.88
				c-0.237-0.353-0.343-0.716-0.307-1.138c0.034-0.409,0.282-0.766,0.587-1.022c0.294-0.248,0.764-0.356,1.138-0.308
				c0.366,0.047,0.811,0.272,1.022,0.587c0.24,0.357,0.505,0.697,0.767,1.038c1.324-0.998,2.641-2.203,3.68-3.573
				c-0.04-0.012-0.083-0.024-0.11-0.032c-0.669-0.175-1.353-0.288-2.042-0.339c-0.861-0.064-1.397-0.93-1.33-1.725
				C78.543,366.5,79.394,365.971,80.196,366.031z"/>
			<path style="opacity:0.5;fill:#FFFFFF;enable-background:new    ;" d="M80.196,366.031c1.133,0.084,2.22,0.344,3.283,0.691
				c0.277-0.759,0.458-1.55,0.484-2.377c0.228-7.246-4.959-4.191-7.7-6.32c-1.367-1.062-3.041-1.744-4.586-1.438
				c0.231,0.399,0.443,0.812,0.62,1.24c0.287,0.694-0.166,1.417-0.877,1.55c-0.669,0.125-1.42,0.067-2.035-0.241
				c-0.192-0.096-0.353-0.236-0.523-0.362c-0.383,0.647-0.722,1.439-0.995,2.423c-0.279,1.007-0.423,2.051-0.469,3.099
				c0.408,0.091,0.813,0.2,1.212,0.342c0.623,0.221,0.956,1.217,0.454,1.722c-0.441,0.443-0.946,0.795-1.495,1.049
				c0.179,1.194,0.512,2.325,0.912,3.396c0.123,0.019,0.247,0.033,0.369,0.057c0.264,0.052,0.524,0.12,0.782,0.193
				c0.148,0.042,0.295,0.092,0.434,0.159c0.359,0.17,0.621,0.477,0.677,0.878c0.056,0.395-0.109,0.804-0.427,1.046
				c-0.169,0.129-0.355,0.23-0.539,0.332c0.826,1.307,1.803,2.343,2.87,2.896c0,0,1.322-0.577,3.052-1.613
				c-0.216-0.29-0.433-0.58-0.634-0.88c-0.237-0.353-0.343-0.716-0.307-1.138c0.034-0.409,0.282-0.766,0.587-1.022
				c0.294-0.248,0.764-0.356,1.138-0.308c0.366,0.047,0.811,0.272,1.022,0.587c0.24,0.357,0.505,0.697,0.767,1.038
				c1.324-0.998,2.641-2.203,3.68-3.573c-0.04-0.012-0.083-0.024-0.11-0.032c-0.669-0.175-1.353-0.288-2.042-0.339
				c-0.861-0.064-1.397-0.93-1.33-1.725C78.543,366.5,79.394,365.971,80.196,366.031z"/>
		</g>
		<g>
			<path style="fill:#407BFF;" d="M78.123,341.049c-0.632-0.453-1.317-0.794-2.028-1.078c0.188-0.52,0.44-1.015,0.789-1.461
				c3.06-3.906,4.444-0.025,6.818,0.059c1.184,0.042,2.363,0.418,3.04,1.257c-0.297,0.108-0.589,0.232-0.87,0.379
				c-0.455,0.239-0.535,0.817-0.219,1.199c0.296,0.359,0.716,0.659,1.175,0.766c0.143,0.034,0.289,0.031,0.434,0.039
				c-0.083,0.508-0.252,1.073-0.541,1.71c-0.295,0.652-0.678,1.263-1.114,1.833c-0.254-0.131-0.515-0.251-0.787-0.352
				c-0.425-0.157-1.037,0.22-0.994,0.706c0.037,0.426,0.148,0.833,0.325,1.207c-0.618,0.548-1.289,0.997-1.97,1.384
				c-0.073-0.044-0.144-0.091-0.219-0.132c-0.161-0.089-0.328-0.167-0.496-0.242c-0.096-0.043-0.195-0.081-0.298-0.107
				c-0.263-0.068-0.535-0.022-0.741,0.164c-0.203,0.183-0.296,0.47-0.235,0.737c0.032,0.142,0.085,0.277,0.138,0.411
				c-1.008,0.324-1.975,0.44-2.779,0.261c0,0-0.441-0.883-0.896-2.187c0.241-0.057,0.482-0.115,0.719-0.184
				c0.28-0.081,0.494-0.225,0.661-0.463c0.162-0.23,0.188-0.526,0.14-0.795c-0.046-0.259-0.245-0.522-0.463-0.661
				c-0.213-0.136-0.545-0.213-0.795-0.14c-0.283,0.082-0.571,0.144-0.858,0.208c-0.257-1.105-0.421-2.316-0.365-3.492
				c0.026,0.012,0.054,0.024,0.072,0.031c0.428,0.202,0.837,0.442,1.222,0.718c0.48,0.344,1.142,0.124,1.456-0.323
				C78.785,342.021,78.571,341.37,78.123,341.049z"/>
			<path style="opacity:0.3;fill:#FFFFFF;enable-background:new    ;" d="M78.123,341.049c-0.632-0.453-1.317-0.794-2.028-1.078
				c0.188-0.52,0.44-1.015,0.789-1.461c3.06-3.906,4.444-0.025,6.818,0.059c1.184,0.042,2.363,0.418,3.04,1.257
				c-0.297,0.108-0.589,0.232-0.87,0.379c-0.455,0.239-0.535,0.817-0.219,1.199c0.296,0.359,0.716,0.659,1.175,0.766
				c0.143,0.034,0.289,0.031,0.434,0.039c-0.083,0.508-0.252,1.073-0.541,1.71c-0.295,0.652-0.678,1.263-1.114,1.833
				c-0.254-0.131-0.515-0.251-0.787-0.352c-0.425-0.157-1.037,0.22-0.994,0.706c0.037,0.426,0.148,0.833,0.325,1.207
				c-0.618,0.548-1.289,0.997-1.97,1.384c-0.073-0.044-0.144-0.091-0.219-0.132c-0.161-0.089-0.328-0.167-0.496-0.242
				c-0.096-0.043-0.195-0.081-0.298-0.107c-0.263-0.068-0.535-0.022-0.741,0.164c-0.203,0.183-0.296,0.47-0.235,0.737
				c0.032,0.142,0.085,0.277,0.138,0.411c-1.008,0.324-1.975,0.44-2.779,0.261c0,0-0.441-0.883-0.896-2.187
				c0.241-0.057,0.482-0.115,0.719-0.184c0.28-0.081,0.494-0.225,0.661-0.463c0.162-0.23,0.188-0.526,0.14-0.795
				c-0.046-0.259-0.245-0.522-0.463-0.661c-0.213-0.136-0.545-0.213-0.795-0.14c-0.283,0.082-0.571,0.144-0.858,0.208
				c-0.257-1.105-0.421-2.316-0.365-3.492c0.026,0.012,0.054,0.024,0.072,0.031c0.428,0.202,0.837,0.442,1.222,0.718
				c0.48,0.344,1.142,0.124,1.456-0.323C78.785,342.021,78.571,341.37,78.123,341.049z"/>
		</g>
		<g>
			<path style="fill:#407BFF;" d="M107.395,348.301c0.21,1.47-3.777,2.438-7.028,2.98c0.265,2.669,2.041,5.367,4.494,7.886
				c3.085-1.738,7.49-4.036,8.302-3.475c0.886,0.613-3.624,3.529-6.444,5.244c1.984,1.761,4.218,3.402,6.389,4.84
				c1.383-1.292,3.002-2.426,3.967-1.813c1.001,0.637,0.73,2.636,0.236,4.42c3.357,1.957,5.87,3.147,5.87,3.147
				s1.409-4.271,2.242-9.53c-0.169-0.334-0.338-0.672-0.492-1.029c-0.541-1.251-0.014-1.783,0.879-1.959
				c0.231-2.302,0.298-4.669,0.055-6.866c-3.799-0.797-8.418-2.271-6.688-4.55c1.044-1.374,2.954-1.53,4.942-1.186
				c-0.278-0.458-0.586-0.89-0.938-1.278c-6.914-7.618-11.737,0-11.737,0c-4.018-3.349-9.662-2.442-10.882,2.79
				C102.818,347.346,107.136,346.486,107.395,348.301z"/>
			<path style="opacity:0.5;fill:#FFFFFF;enable-background:new    ;" d="M107.395,348.301c0.21,1.47-3.777,2.438-7.028,2.98
				c0.265,2.669,2.041,5.367,4.494,7.886c3.085-1.738,7.49-4.036,8.302-3.475c0.886,0.613-3.624,3.529-6.444,5.244
				c1.984,1.761,4.218,3.402,6.389,4.84c1.383-1.292,3.002-2.426,3.967-1.813c1.001,0.637,0.73,2.636,0.236,4.42
				c3.357,1.957,5.87,3.147,5.87,3.147s1.409-4.271,2.242-9.53c-0.169-0.334-0.338-0.672-0.492-1.029
				c-0.541-1.251-0.014-1.783,0.879-1.959c0.231-2.302,0.298-4.669,0.055-6.866c-3.799-0.797-8.418-2.271-6.688-4.55
				c1.044-1.374,2.954-1.53,4.942-1.186c-0.278-0.458-0.586-0.89-0.938-1.278c-6.914-7.618-11.737,0-11.737,0
				c-4.018-3.349-9.662-2.442-10.882,2.79C102.818,347.346,107.136,346.486,107.395,348.301z"/>
		</g>
	</g>
</g>
<g id="Plant_2">
	<g>
		<g>
			<path style="fill:none;stroke:#407BFF;stroke-miterlimit:10;" d="M422.51,348.022c0,0-6.347-5.292-11.79,0
				c-5.443,5.292-6.493,38.076-6.493,38.076"/>
			<path style="fill:none;stroke:#407BFF;stroke-miterlimit:10;" d="M403.777,392.428c0,0,3.741-38.474-10.346-54.642"/>
			<path style="fill:none;stroke:#407BFF;stroke-miterlimit:10;" d="M405.117,388.373c0,0-2.882-43.799,7.684-53.517"/>
			<path style="fill:none;stroke:#407BFF;stroke-miterlimit:10;" d="M403.777,388.373c0,0-0.246-28.942-8.097-33.442
				c-7.851-4.499-11.853,10.175-11.853,10.175"/>
			<path style="fill:none;stroke:#407BFF;stroke-miterlimit:10;" d="M406.878,388.373c0,0-1.281-22.219,4.802-30.16
				s12.487,3.402,12.487,3.402"/>
			<path style="fill:none;stroke:#407BFF;stroke-miterlimit:10;" d="M404.758,391.349c0,0,3.934-51.963-2.576-60.768"/>
		</g>
		<g>
			<path style="fill:#407BFF;" d="M388.956,359.148c0,0,3.915,1.443,2.751,4.85c-1.164,3.407-13.544,9.015-13.544,9.015
				s-5.185-4.752-0.423-12.481C382.502,352.804,388.85,356.71,388.956,359.148z"/>
			<path style="opacity:0.5;fill:#FFFFFF;enable-background:new    ;" d="M388.956,359.148c0,0,3.915,1.443,2.751,4.85
				c-1.164,3.407-13.544,9.015-13.544,9.015s-5.185-4.752-0.423-12.481C382.502,352.804,388.85,356.71,388.956,359.148z"/>
		</g>
		<g>
			<path style="fill:#407BFF;" d="M405.975,352.662c0,0-4.169-0.174-4.406,3.418c-0.237,3.593,9.031,13.533,9.031,13.533
				s6.614-2.391,5.193-11.357C414.374,349.29,407.011,350.452,405.975,352.662z"/>
			<path style="opacity:0.5;fill:#FFFFFF;enable-background:new    ;" d="M405.975,352.662c0,0-4.169-0.174-4.406,3.418
				c-0.237,3.593,9.031,13.533,9.031,13.533s6.614-2.391,5.193-11.357C414.374,349.29,407.011,350.452,405.975,352.662z"/>
		</g>
		<g>
			<path style="fill:#407BFF;" d="M409.505,335.463c0,0-2.779-0.298-2.556-1.991c0.224-1.693,10.805-6.05,17.047,0.996
				c0,0-3.997,6.866-9.776,6.956C408.443,341.513,409.505,335.463,409.505,335.463z"/>
			<path style="opacity:0.5;fill:#FFFFFF;enable-background:new    ;" d="M409.505,335.463c0,0-2.779-0.298-2.556-1.991
				c0.224-1.693,10.805-6.05,17.047,0.996c0,0-3.997,6.866-9.776,6.956C408.443,341.513,409.505,335.463,409.505,335.463z"/>
		</g>
		<g>
			<path style="fill:#407BFF;" d="M404.326,331.352c0,0,2.517,1.217,3.222-0.338c0.706-1.555-5.97-10.849-14.994-8.171
				c0,0-0.239,7.941,4.617,11.074C402.027,337.049,404.326,331.352,404.326,331.352z"/>
			<path style="opacity:0.5;fill:#FFFFFF;enable-background:new    ;" d="M404.326,331.352c0,0,2.517,1.217,3.222-0.338
				c0.706-1.555-5.97-10.849-14.994-8.171c0,0-0.239,7.941,4.617,11.074C402.027,337.049,404.326,331.352,404.326,331.352z"/>
		</g>
		<g>
			<path style="fill:#407BFF;" d="M417.485,357.778c0,0-1.918-1.549,0.152-2.305c2.07-0.756,12.228-0.541,12.334,9.521
				c0,0-11.83,1.966-13.295-1.867C415.212,359.295,417.485,357.778,417.485,357.778z"/>
			<path style="opacity:0.5;fill:#FFFFFF;enable-background:new    ;" d="M417.485,357.778c0,0-1.918-1.549,0.152-2.305
				c2.07-0.756,12.228-0.541,12.334,9.521c0,0-11.83,1.966-13.295-1.867C415.212,359.295,417.485,357.778,417.485,357.778z"/>
		</g>
		<g>
			<path style="fill:#407BFF;" d="M393.361,335.211c0,0,1.918-1.549-0.152-2.305c-2.07-0.756-12.228-0.541-12.334,9.521
				c0,0,11.83,1.966,13.295-1.867C395.634,336.728,393.361,335.211,393.361,335.211z"/>
			<path style="opacity:0.5;fill:#FFFFFF;enable-background:new    ;" d="M393.361,335.211c0,0,1.918-1.549-0.152-2.305
				c-2.07-0.756-12.228-0.541-12.334,9.521c0,0,11.83,1.966,13.295-1.867C395.634,336.728,393.361,335.211,393.361,335.211z"/>
		</g>
		<g>
			<path style="fill:#407BFF;" d="M399.615,343.316c0,0,0.169-1.883-1.351-1.145c-1.52,0.738-6.815,6.451-1.326,11.872
				c0,0,7.389-5.472,6.057-8.322C401.663,342.871,399.615,343.316,399.615,343.316z"/>
			<path style="opacity:0.5;fill:#FFFFFF;enable-background:new    ;" d="M399.615,343.316c0,0,0.169-1.883-1.351-1.145
				c-1.52,0.738-6.815,6.451-1.326,11.872c0,0,7.389-5.472,6.057-8.322C401.663,342.871,399.615,343.316,399.615,343.316z"/>
		</g>
		<g>
			<path style="fill:#407BFF;" d="M419.2,345.999c0,0-1.147-1.503,0.533-1.689c1.679-0.186,9.205,1.823,7.453,9.336
				c0,0-9.169-0.689-9.562-3.81C417.231,346.715,419.2,345.999,419.2,345.999z"/>
			<path style="opacity:0.5;fill:#FFFFFF;enable-background:new    ;" d="M419.2,345.999c0,0-1.147-1.503,0.533-1.689
				c1.679-0.186,9.205,1.823,7.453,9.336c0,0-9.169-0.689-9.562-3.81C417.231,346.715,419.2,345.999,419.2,345.999z"/>
		</g>
		<polygon style="fill:#263238;" points="388.224,416.265 419.684,416.265 423.078,381.821 384.83,381.821 		"/>
		<polygon style="opacity:0.2;fill:#FFFFFF;enable-background:new    ;" points="388.224,416.265 419.684,416.265 423.078,381.821 
			384.83,381.821 		"/>
		
			<rect x="383.151" y="378.021" transform="matrix(-1 -1.224647e-16 1.224647e-16 -1 807.9079 763.6427)" style="fill:#263238;" width="41.606" height="7.6"/>
		
			<rect x="383.151" y="378.021" transform="matrix(-1 -1.224647e-16 1.224647e-16 -1 807.9079 763.6427)" style="opacity:0.4;fill:#FFFFFF;enable-background:new    ;" width="41.606" height="7.6"/>
	</g>
</g>
<g id="Character_2">
	<g>
		<g>
			<path style="fill:#CE7A63;" d="M290.46,187.398c-0.265,1.504-0.528,2.755-0.863,4.1c-0.324,1.32-0.679,2.629-1.062,3.932
				c-0.755,2.611-1.679,5.18-2.741,7.731c-2.183,5.058-4.879,10.138-9.374,14.491c-1.12,1.077-2.405,2.074-3.813,2.944
				c-0.349,0.206-0.733,0.445-1.056,0.616l-0.923,0.463c-0.618,0.315-1.223,0.604-1.837,0.879c-2.45,1.107-4.874,2.109-7.328,3.019
				c-4.899,1.837-9.828,3.396-14.895,4.695l-1.879-4.777c4.451-2.496,8.971-4.911,13.399-7.319c2.206-1.22,4.413-2.413,6.51-3.667
				c0.521-0.317,1.054-0.615,1.55-0.934l0.757-0.469c0.231-0.149,0.38-0.268,0.575-0.4c0.732-0.532,1.452-1.156,2.126-1.908
				c2.749-2.957,4.905-7.159,6.606-11.535c0.876-2.193,1.607-4.479,2.303-6.781c0.342-1.153,0.66-2.318,0.949-3.485
				c0.276-1.143,0.583-2.391,0.79-3.405L290.46,187.398z"/>
		</g>
		<path style="fill:#407BFF;" d="M269.579,201.086l10.804,8.064c0,0,0.416-0.456,1.101-1.246c0.498-0.584,1.143-1.352,1.89-2.255
			c4.197-5.114,10.335-14.45,10.385-19.022c0.075-6.815-7.002-7.82-14.944-0.847c-3.426,3.007-5.215,8-6.958,11.094
			c-0.577,1.02-1.061,1.912-1.435,2.606C269.884,200.485,269.579,201.086,269.579,201.086z"/>
		<path style="opacity:0.3;" d="M293.831,187.413c-2.442-1.614-4.225,2.563-9.048,6.092c-2.152,1.574-6.865,11.835-6.478,14.094
			l2.082,1.552C280.386,209.151,293.884,194.206,293.831,187.413z"/>
		<g>
			<path style="fill:#CE7A63;" d="M246.61,224.934l-8.926-2.365l0.623,8.85c0,0,8.727,0.88,9.537-1.742L246.61,224.934z"/>
			<polygon style="fill:#CE7A63;" points="230.81,227.15 232.841,233.191 238.307,231.419 237.684,222.568 			"/>
		</g>
		<path style="fill:#407BFF;" d="M283.071,240.663h36.565c0.258-3.265-0.498-13.888,0.065-27.417
			c0.378-9.084,1.356-19.477,3.633-29.824c0.166-0.738,0.332-1.467,0.507-2.204c0,0-1.853-0.378-4.509-0.766
			c-2.204-0.323-4.971-0.655-7.682-0.784c-4.666-0.221-11.426-0.369-15.539,0c-2.389,0.222-4.722,0.618-6.585,0.978
			c-2.379,0.48-3.781,0.89-3.781,0.89S276.736,202.217,283.071,240.663z"/>
		<path style="opacity:0.3;" d="M319.701,213.249c0.378-9.084,1.356-19.477,3.634-29.824c-2.444-0.212-6.622,0.027-7.313,3.975
			C315.274,191.642,316.215,201.62,319.701,213.249z"/>
		<path style="fill:#CE7A63;" d="M311.318,163.973l-4.159,3.449l-5.662,4.703c0.166,0.766,0.295,1.54,0.36,2.288
			c0.304,3.07-0.489,4.132-5.008,5.201c0,0-5.36,3.55,2.595,4.193c0.024,0.501,0.109,1.726,0.394,2.552
			c0.851-1.261,2.128-2.175,2.564-2.467c8.699-0.155,9.847-4.186,9.847-4.186C308.865,176.368,310.165,168.98,311.318,163.973z"/>
		<path style="opacity:0.2;" d="M301.496,172.125c0.166,0.766,0.295,1.54,0.36,2.287c2.112-0.425,4.934-2.675,5.229-4.833
			c0.111-0.811,0.129-1.595,0.074-2.158L301.496,172.125z"/>
		<polygon style="fill:#9F5B53;" points="286.321,409.202 278.629,410.008 278.24,405.551 277.188,393.42 284.879,392.604 
			286.046,406.006 		"/>
		<polygon style="fill:#9F5B53;" points="324.713,408.225 317.259,408.225 317.192,406.537 317.183,406.328 316.803,395.516 
			316.794,395.298 316.642,391.153 324.106,391.153 		"/>
		<polygon style="opacity:0.2;enable-background:new    ;" points="284.879,392.604 286.046,406.006 278.24,405.551 277.188,393.42 
					"/>
		<polygon style="opacity:0.2;enable-background:new    ;" points="324.666,407.277 324.656,407.277 317.192,406.328 
			317.183,406.328 316.794,395.896 316.803,395.896 324.277,396.493 324.656,406.949 		"/>
		<path style="fill:#263238;" d="M316.225,407.776h9.057c0.305,0.001,0.569,0.214,0.635,0.512l1.47,6.639
			c0.126,0.594-0.254,1.178-0.849,1.304c-0.08,0.017-0.161,0.025-0.242,0.024c-2.931-0.047-5.065-0.228-8.744-0.228
			c-2.267,0-9.105,0.237-12.235,0.237c-3.13,0-3.538-3.092-2.257-3.376c5.747-1.252,10.072-2.988,11.912-4.638
			C315.314,407.938,315.762,407.768,316.225,407.776z"/>
		<path style="fill:#263238;" d="M277.814,407.539h9.058c0.305,0.002,0.569,0.214,0.635,0.512l1.47,6.639
			c0.126,0.594-0.254,1.178-0.848,1.304c-0.08,0.017-0.161,0.025-0.242,0.024c-2.93-0.047-5.065-0.228-8.744-0.228
			c-2.267,0-9.105,0.237-12.235,0.237c-3.13,0-3.538-3.092-2.257-3.376c5.748-1.252,10.072-2.988,11.912-4.638
			C276.903,407.7,277.351,407.531,277.814,407.539z"/>
		<path style="fill:#263238;" d="M325.664,405.381h-10.798c0,0-8.692-46.53-12.133-70.241c-0.537-3.683-1.109-8.51-1.69-14.135
			c-0.919-9.091-1.855-19.993-2.695-30.496c-2.583,6.942-4.55,16.856-6.066,28.104c-5.408,40.298-4.862,85.814-4.862,85.814h-10.937
			c-8.441-64.485,2.825-143.851,6.586-163.766h36.562c0.061,4.74,2.063,72.033,3.475,97.33
			C324.382,361.294,325.664,405.381,325.664,405.381z"/>
		<polygon style="fill:#407BFF;" points="275.255,401.349 275.789,404.431 288.711,404.431 288.711,401.586 		"/>
		<polygon style="fill:#407BFF;" points="313.624,402.534 314.864,405.38 325.699,405.38 326.411,402.534 		"/>
		<g>
			<path style="fill:#263238;" d="M311.53,164.598c0,0,2.222,1.1,2.892-0.17c0.67-1.27,0.013-3.228,1.09-3.595
				c1.077-0.366,3.449-0.421,3.298-1.758c-0.151-1.337-1.655-2.394-0.623-3.258c1.032-0.863,3.14-2.074,2.202-3.113
				c-0.938-1.04-1.809-2.754-0.99-3.373c0.819-0.619-0.249-4.167-2.354-3.933c-2.105,0.234-1.746-1.476-1.693-2.964
				c0.053-1.488-3.084-2.796-3.825-1.283c-0.741,1.513-2.348-0.414-2.783-1.75c-0.435-1.337-1.347-1.806-3.234-0.858
				c-1.887,0.949-2.166,4.107-3.137,2.275c-0.971-1.831-3.127-2.992-4.176-1.961c-1.049,1.032-0.419,2.325-2.069,2.256
				c-1.65-0.069-3.934,2.916-3.128,3.378c0.806,0.462,0.695,1.283-0.42,2.176c-1.115,0.893-2.397,2.363-0.949,3.031
				c1.448,0.667,1.361,1.705,0.932,2.136c-0.429,0.431,0.864,2.52,2.823,2.397C297.344,154.107,311.53,164.598,311.53,164.598z"/>
			<path style="fill:#263238;" d="M294.377,145.725c0,0-3.715,8.83,0.267,13.592c3.982,4.763,8.299-12.331,8.299-12.331
				L294.377,145.725z"/>
			<path style="fill:#CE7A63;" d="M306.95,170.188c-3.223,2.802-7.304,2.718-10.385,0.813c-1.982-1.222-3.546-3.204-4.208-5.652
				c-0.091-0.32-0.16-0.653-0.218-0.993c-0.981-6.217,0.734-16.225,7.597-18.405c4.882-1.589,10.141,1.082,11.728,5.973
				c0.461,1.388,0.574,2.868,0.352,4.318C310.888,162.986,310.66,166.995,306.95,170.188z"/>
			<path style="fill:#263238;" d="M301.367,157.332c-0.005,0.551-0.367,0.976-0.734,0.946c-0.367-0.029-0.616-0.503-0.577-1.054
				c0.039-0.55,0.375-0.976,0.734-0.947C301.148,156.307,301.407,156.773,301.367,157.332z"/>
			<path style="fill:#263238;" d="M295.12,156.842c-0.004,0.551-0.375,0.976-0.734,0.947c-0.358-0.029-0.616-0.503-0.577-1.054
				c0.04-0.55,0.375-0.976,0.734-0.947C294.902,155.817,295.16,156.318,295.12,156.842z"/>
			<path style="fill:#BA4D3C;" d="M297.084,157.27c-0.79,1.639-1.803,3.16-3.01,4.521c0.725,0.61,1.683,0.867,2.617,0.704
				L297.084,157.27z"/>
			<path style="fill:#263238;" d="M293.039,154.098c0.106,0.06,0.236,0.058,0.34-0.003c0.695-0.449,1.561-0.544,2.337-0.256
				c0.161,0.077,0.354,0.009,0.431-0.153c0.077-0.161,0.009-0.354-0.153-0.431c0,0-0.001,0-0.001-0.001
				c-0.971-0.389-2.071-0.283-2.95,0.284c-0.155,0.089-0.209,0.286-0.12,0.441c0.001,0.002,0.003,0.005,0.004,0.007
				C292.958,154.03,292.996,154.067,293.039,154.098z"/>
			<path style="fill:#263238;" d="M302.791,154.945c0.066,0.004,0.131-0.013,0.186-0.048c0.13-0.123,0.135-0.328,0.012-0.457
				c-0.002-0.002-0.003-0.004-0.005-0.005c-0.718-0.766-1.763-1.135-2.803-0.989c-0.175,0.035-0.289,0.206-0.253,0.381v0.001
				c0.039,0.173,0.207,0.284,0.382,0.254l0,0c0.824-0.092,1.643,0.212,2.208,0.819C302.597,154.953,302.697,154.97,302.791,154.945z
				"/>
			<path style="fill:#263238;" d="M307.5,147.386l-0.75,1.206c2.138,1.011,1.37,3.544,0.771,4.66
				c-1.278,2.382-0.349,6.445,1.376,8.237c0,0,0.197-1.077,1.079-0.704c0.883,0.373,0.023,5.039,0.023,5.039
				s0.774,1.324,3.049-4.413c2.104-5.306,2.858-9.854,2-12.118L307.5,147.386z"/>
			<path style="fill:#CE7A63;" d="M314.344,162.039c-0.873,1.477-2.296,2.546-3.957,2.975c-2.203,0.552-3.243-1.436-2.586-3.486
				c0.602-1.817,2.467-4.356,4.657-3.976C314.649,157.932,315.393,160.213,314.344,162.039z"/>
			<g>
				<path style="fill:#263238;" d="M296.989,163.854c0.619,0.88,1.388,2.602,1.388,2.602c0.169-0.041,0.337-0.083,0.503-0.133
					c2.272-0.621,3.12-1.66,3.372-2.622c0.136-0.527,0.086-1.037-0.007-1.438c-0.102-0.465-0.282-0.773-0.282-0.773
					c-1.008,1.049-3.081,1.791-4.205,2.141C297.291,163.782,296.989,163.854,296.989,163.854z"/>
				<path style="fill:#FFFFFF;" d="M297.76,163.63l0.429,0.757c2.138-0.59,3.565-1.293,4.057-2.124
					c-0.102-0.465-0.282-0.773-0.282-0.773C300.957,162.538,298.884,163.28,297.76,163.63z"/>
				<path style="fill:#DE5753;" d="M298.88,166.322c2.272-0.621,3.12-1.66,3.372-2.622c-0.766,0.241-1.663,0.618-2.386,1.189
					C299.312,165.324,299.03,165.839,298.88,166.322z"/>
			</g>
			<path style="fill:#263238;" d="M302.577,143.363c0,0-3.67,0.008-5.536,1.529c-1.866,1.521-3.13,3.899-2.463,4.113
				c0.667,0.214,2.597-0.878,3.097-0.639c0.5,0.239,0.498,3.156,2.346,2.165c1.848-0.991,0.806-0.981,2.31-1.362
				c1.505-0.381,2.345,1.501,2.98,1.375c0.635-0.126,1.308-0.627,1.308-0.627s-1.99-0.661-2.11-1.293
				c-0.121-0.632-2.027-0.973-2.027-0.973s2.386-0.809,3.13-0.137c0.745,0.673,0.311,2.144,2.257,2.101
				c1.947-0.043,4.972,1.671,5.276-0.804C313.45,146.336,307,141.72,302.577,143.363z"/>
		</g>
		<g>
			<polygon style="fill:#407BFF;" points="312.25,176.32 302.943,180.32 299.838,186.359 302.943,184.319 306.75,187.976 
				314.814,179.902 			"/>
			<path style="fill:#407BFF;" d="M299.838,186.359l-0.958-5.349c0,0,0.089-1.565,2.201-3.104l-3.322-1.586
				c0,0-5.144,6.179-5.449,10.039l4.497-2.987L299.838,186.359z"/>
			<polygon style="opacity:0.2;fill:#FFFFFF;" points="312.25,176.32 302.943,180.32 299.838,186.359 302.943,184.319 
				306.75,187.976 314.814,179.902 			"/>
			<path style="opacity:0.2;fill:#FFFFFF;" d="M299.838,186.359l-0.958-5.349c0,0,0.089-1.565,2.201-3.104l-3.322-1.586
				c0,0-5.144,6.179-5.449,10.039l4.497-2.987L299.838,186.359z"/>
		</g>
		<g>
			<path style="fill:#407BFF;" d="M272.93,408.109c-0.138-0.267-0.112-0.565,0.077-0.884c0.114-0.194,0.285-0.303,0.492-0.315
				c0.895-0.054,2.328,1.802,2.489,2.013c0.038,0.05,0.043,0.118,0.013,0.173c-0.03,0.055-0.09,0.087-0.153,0.081
				c-0.503-0.043-1.208-0.135-1.808-0.33C273.535,408.685,273.105,408.449,272.93,408.109z M273.517,407.229
				c-0.101,0.006-0.176,0.056-0.237,0.158c-0.131,0.222-0.154,0.41-0.068,0.576c0.206,0.4,1.051,0.714,2.289,0.86
				C274.903,408.099,273.999,407.2,273.517,407.229z"/>
			<path style="fill:#407BFF;" d="M275.741,409.125c-0.522-0.596-1.052-2.268-0.672-2.929c0.139-0.242,0.387-0.342,0.698-0.28
				c0.259,0.051,0.452,0.192,0.574,0.42c0.451,0.845-0.302,2.668-0.334,2.745c-0.021,0.051-0.067,0.087-0.121,0.096
				c-0.025,0.004-0.051,0.002-0.075-0.006C275.785,409.163,275.76,409.147,275.741,409.125z M275.706,406.228
				c-0.229-0.045-0.314,0.044-0.361,0.127c-0.249,0.433,0.061,1.674,0.472,2.335c0.218-0.612,0.513-1.7,0.243-2.204
				c-0.063-0.12-0.156-0.198-0.282-0.239C275.756,406.24,275.732,406.233,275.706,406.228z"/>
		</g>
		<g>
			<path style="fill:#407BFF;" d="M311.341,408.109c-0.138-0.267-0.112-0.565,0.077-0.884c0.115-0.194,0.285-0.303,0.492-0.315
				c0.895-0.054,2.328,1.802,2.489,2.013c0.038,0.05,0.043,0.118,0.012,0.173c-0.03,0.055-0.09,0.087-0.153,0.081
				c-0.503-0.043-1.208-0.135-1.808-0.33C311.946,408.685,311.516,408.449,311.341,408.109z M311.929,407.229
				c-0.101,0.006-0.176,0.056-0.237,0.158c-0.131,0.222-0.154,0.41-0.068,0.576c0.206,0.4,1.051,0.714,2.289,0.86
				C313.315,408.099,312.41,407.2,311.929,407.229z"/>
			<path style="fill:#407BFF;" d="M314.152,409.125c-0.522-0.596-1.051-2.268-0.671-2.929c0.139-0.242,0.387-0.342,0.698-0.28
				c0.259,0.051,0.452,0.192,0.574,0.42c0.451,0.845-0.302,2.668-0.334,2.745c-0.021,0.051-0.067,0.087-0.121,0.096
				c-0.025,0.004-0.051,0.002-0.075-0.006C314.196,409.163,314.172,409.147,314.152,409.125z M314.117,406.228
				c-0.229-0.045-0.314,0.044-0.361,0.127c-0.249,0.433,0.061,1.674,0.472,2.335c0.218-0.612,0.513-1.7,0.243-2.204
				c-0.064-0.12-0.156-0.198-0.282-0.239C314.167,406.24,314.143,406.233,314.117,406.228z"/>
		</g>
		<path style="opacity:0.3;" d="M298.349,290.509c-2.583,6.942-4.55,16.856-6.066,28.104c-3.674-15.044,5.113-42.871,5.113-42.871
			L298.349,290.509z"/>
		<g>
			<path style="fill:#263238;" d="M349.052,237.387c3.08,1.134,4.021,6.277,2.102,11.489c-1.919,5.212-5.97,8.517-9.05,7.384
				c-3.08-1.134-4.021-6.278-2.102-11.489C341.921,239.559,345.973,236.253,349.052,237.387z"/>
			<path style="fill:#263238;" d="M340.332,229.547c-0.377-0.751-0.881-1.287-1.527-1.525c-3.024-1.113-7.842,4.414-10.762,12.346
				c-2.92,7.931-2.836,15.263,0.188,16.376c0.646,0.238,1.377,0.156,2.151-0.171c0.257,0.268,0.546,0.476,0.876,0.598
				c0.639,0.235,1.365,0.145,2.133-0.196c0.258,0.286,0.555,0.498,0.894,0.623c0.635,0.234,1.359,0.134,2.127-0.225
				c0.257,0.301,0.556,0.525,0.901,0.652c0.633,0.233,1.357,0.125,2.125-0.257c0.255,0.317,0.553,0.555,0.903,0.684
				c2.514,0.925,6.519-3.67,8.947-10.263c2.427-6.594,2.358-12.689-0.156-13.615c-0.35-0.129-0.731-0.14-1.131-0.065
				c-0.337-0.789-0.818-1.34-1.451-1.573c-0.345-0.127-0.717-0.15-1.109-0.087c-0.351-0.771-0.838-1.317-1.473-1.55
				c-0.339-0.125-0.703-0.156-1.084-0.105c-0.364-0.758-0.858-1.297-1.497-1.533C341.056,229.538,340.701,229.51,340.332,229.547z"
				/>
			<path style="opacity:0.2;fill:#FFFFFF;" d="M340.332,229.547c-0.377-0.751-0.881-1.287-1.527-1.525
				c-3.024-1.113-7.842,4.414-10.762,12.346c-2.92,7.931-2.836,15.263,0.188,16.376c0.646,0.238,1.377,0.156,2.151-0.171
				c0.257,0.268,0.546,0.476,0.876,0.598c0.639,0.235,1.365,0.145,2.133-0.196c0.258,0.286,0.555,0.498,0.894,0.623
				c0.635,0.234,1.359,0.134,2.127-0.225c0.257,0.301,0.556,0.525,0.901,0.652c0.633,0.233,1.357,0.125,2.125-0.257
				c0.255,0.317,0.553,0.555,0.903,0.684c2.514,0.925,6.519-3.67,8.947-10.263c2.427-6.594,2.358-12.689-0.156-13.615
				c-0.35-0.129-0.731-0.14-1.131-0.065c-0.337-0.789-0.818-1.34-1.451-1.573c-0.345-0.127-0.717-0.15-1.109-0.087
				c-0.351-0.771-0.838-1.317-1.473-1.55c-0.339-0.125-0.703-0.156-1.084-0.105c-0.364-0.758-0.858-1.297-1.497-1.533
				C341.056,229.538,340.701,229.51,340.332,229.547z"/>
			<path style="fill:#407BFF;" d="M317.875,207.766c-14.632-5.387-30.928,2.656-35.371,17.884
				c-3.833,13.139,2.974,27.293,15.616,32.535c8.217,3.407,17.064,2.475,24.11-1.659c1.279-0.75,2.842-0.858,4.177-0.212
				c0.065,0.032,0.132,0.06,0.2,0.085c3.071,1.13,7.963-4.483,10.928-12.537c2.965-8.054,2.88-15.5-0.191-16.63
				c-0.066-0.024-0.133-0.045-0.201-0.063c-1.45-0.383-2.568-1.498-3.063-2.914C331.504,216.882,325.777,210.676,317.875,207.766z"
				/>
			<path style="opacity:0.7;fill:#FFFFFF;" d="M317.875,207.766c-14.632-5.387-30.928,2.656-35.371,17.884
				c-3.833,13.139,2.974,27.293,15.616,32.535c8.217,3.407,17.064,2.475,24.11-1.659c1.279-0.75,2.842-0.858,4.177-0.212
				c0.065,0.032,0.132,0.06,0.2,0.085c3.071,1.13,7.963-4.483,10.928-12.537c2.965-8.054,2.88-15.5-0.191-16.63
				c-0.066-0.024-0.133-0.045-0.201-0.063c-1.45-0.383-2.568-1.498-3.063-2.914C331.504,216.882,325.777,210.676,317.875,207.766z"
				/>
			
				<path style="fill:none;stroke:#263238;stroke-width:0.6499;stroke-linecap:round;stroke-linejoin:round;stroke-miterlimit:10;" d="
				M334.707,237.798c0,0-11.826-6.363-13.214-14.18l-1.761,4.783l-4.159,0.206l5.433,5.584l-7.757,0.729l4.651,5.297l-6.975,1.017
				l3.033,2.854l-1.761,4.783c0,0,9.675-4.84,18.958-1.423"/>
		</g>
		<g>
			<path style="fill:#CE7A63;" d="M324.698,184.225c1.161,0.865,2.096,1.617,3.086,2.473c0.972,0.835,1.923,1.689,2.857,2.564
				c1.872,1.747,3.643,3.616,5.332,5.597c1.677,1.988,3.281,4.092,4.698,6.397c1.417,2.302,2.697,4.795,3.579,7.595
				c0.203,0.714,0.42,1.414,0.567,2.164c0.151,0.622,0.342,1.769,0.351,2.574c0.069,1.709-0.131,3.134-0.368,4.504
				c-0.487,2.717-1.24,5.17-2.079,7.56c-1.702,4.773-3.776,9.207-6.223,13.569l-4.732-1.988c1.189-4.557,2.374-9.208,3.273-13.713
				c0.45-2.249,0.804-4.498,0.953-6.557c0.066-1.017,0.051-2.007-0.05-2.702c-0.055-0.399-0.095-0.441-0.25-0.982
				c-0.113-0.427-0.297-0.866-0.451-1.301c-1.422-3.523-4.067-7.066-7.025-10.327c-1.481-1.646-3.085-3.224-4.724-4.774
				c-0.822-0.773-1.662-1.531-2.515-2.267c-0.837-0.714-1.756-1.501-2.507-2.101L324.698,184.225z"/>
		</g>
		<path style="fill:#407BFF;" d="M316.19,195.402c2.67,4.021,6.526,8.66,9.315,11.875c0.734,0.854,1.404,1.61,1.949,2.219
			c0.955,1.072,1.547,1.715,1.547,1.715l11.398-10.991c0,0-0.319-0.516-0.875-1.379c-0.422-0.651-0.976-1.505-1.638-2.483
			c-3.926-5.756-11.51-15.87-16.147-15.327C314.807,181.844,311.34,188.117,316.19,195.402z"/>
		<g>
			<path style="fill:#CE7A63;" d="M336.559,238.994l-3.491,6.724l-4.547-8.283c0,0,4.161-5.393,6.764-3.016L336.559,238.994z"/>
			<polygon style="fill:#CE7A63;" points="326.241,247.514 322.815,240.494 328.521,237.435 333.068,245.718 			"/>
		</g>
	</g>
</g>
<g id="Character_1">
	<g>
		<g>
			<polygon style="fill:#407BFF;" points="206.766,281.261 251.491,287.911 251.854,324.112 240.701,334.568 192.435,325.633 
				194.598,287.029 			"/>
			<polygon style="opacity:0.4;" points="251.851,324.109 247.511,328.189 246.541,329.089 240.701,334.569 192.431,325.629 
				194.601,287.029 199.791,284.569 201.391,283.809 206.761,281.259 251.491,287.909 			"/>
			<polygon style="opacity:0.2;fill:#FFFFFF;" points="194.601,287.029 238.694,294.142 251.491,287.909 206.761,281.259 			"/>
			<polygon style="opacity:0.1;fill:#FFFFFF;" points="238.694,294.142 240.701,334.569 251.851,324.109 251.491,287.909 			"/>
			<g>
				<polygon style="fill:#263238;" points="247.511,328.189 246.541,329.089 244.809,291.257 199.791,284.569 201.391,283.809 
					245.798,290.763 				"/>
			</g>
			<polygon style="fill:#263238;" points="215.121,286.114 217.908,284.828 229.232,286.362 226.661,287.909 			"/>
			<path style="fill:#263238;" d="M210.738,285.57c0,0,3.147-11.374,3.7-12.017c0.553-0.643,16.377,1.78,17.564,1.929
				c1.187,0.148,2.621,12.659,2.621,12.659l-1.286,1.039l-2.967-0.544c0,0-0.544-10.582-0.841-10.928
				c-0.297-0.346-12.511-2.126-12.907-1.978c-0.396,0.148-1.928,9.099-1.928,9.099l-1.434,1.088L210.738,285.57z"/>
			<g>
				<g>
					<path style="fill:#407BFF;" d="M250.591,318.209l-4.41,3.08l-0.04-0.91l-0.33-7.15l-0.04-0.86l-0.07-1.53
						c0,0,0.58,1.32,1.44,2.88C248.081,315.409,249.351,317.379,250.591,318.209z"/>
					<path style="opacity:0.2;fill:#FFFFFF;" d="M249.471,318.179l-3.33,2.2l-0.33-7.15l-0.04-0.86
						C246.441,314.089,247.741,316.929,249.471,318.179z"/>
					<path style="opacity:0.2;" d="M247.141,313.719c-0.45-0.19-0.91-0.35-1.33-0.49l-0.11-2.39
						C245.701,310.839,246.281,312.159,247.141,313.719z"/>
				</g>
				<path style="fill:#407BFF;" d="M254.351,310.589l-1.28,5.94c0,0-3.05-2.98-7.26-3.47l-0.04-0.89l-0.25-5.54l-0.03-0.58
					C245.491,306.049,250.891,307.129,254.351,310.589z"/>
				<path style="fill:#407BFF;" d="M251.491,298.889c0,0-2.8,2.89-6.22,4.41l-0.02-0.67l-0.06-1.76l-0.1-2.93l-0.05-1.42l-0.01-0.41
					c0,0,1.97-1.57,3.16-3.02L251.491,298.889z"/>
				<path style="fill:#407BFF;" d="M244.161,288.339c0,0-1.78,1.51-2.27,2.48l-0.71-0.1l-0.97-0.15l-1.55-0.22l-1.49-0.22
					l-0.53-0.08c0,0,0.8-3.09,4.26-5.22L244.161,288.339z"/>
				<path style="opacity:0.2;fill:#FFFFFF;" d="M240.701,285.569c-1.82,0.99-3.02,3.37-3.53,4.56l1.49,0.22
					c-0.11-0.16-0.17-0.36-0.17-0.57c0-0.58,0.47-1.05,1.05-1.05c0.58,0,1.05,0.47,1.05,1.05c0,0.32-0.15,0.61-0.38,0.79l0.97,0.15
					c0.66-1.14,2.05-2.52,2.05-2.52L240.701,285.569z"/>
				<path style="opacity:0.2;fill:#FFFFFF;" d="M245.521,306.629l0.25,5.54c3.37,0.58,6.97,3.3,6.97,3.3l1.15-4.78
					C251.021,308.039,247.311,306.999,245.521,306.629z M250.011,310.539c-0.28,0.69-1.22,0.96-2.1,0.6
					c-0.87-0.35-1.36-1.2-1.08-1.89c0.28-0.69,1.21-0.96,2.09-0.6C249.801,308.999,250.291,309.849,250.011,310.539z"/>
				<path style="opacity:0.2;fill:#FFFFFF;" d="M247.961,294.139c-0.83,1-2.05,1.86-2.92,2.38l0.05,1.42
					c0.02-0.01,0.05-0.01,0.07-0.01c0.74,0,1.35,0.66,1.35,1.47c0,0.8-0.59,1.45-1.32,1.47l0.06,1.76c2.04-0.85,5.34-3.74,5.34-3.74
					L247.961,294.139z"/>
			</g>
		</g>
		<g>
			<path style="fill:#263238;" d="M208.691,202.246c5.739,3.808,6.266,29.126,6.794,36.247c0.527,7.121,5.011,26.901,5.011,26.901
				l-4.747,1.714c0,0-5.239-18.895-7.058-29.67C207.989,233.281,208.691,202.246,208.691,202.246z"/>
			<path style="opacity:0.2;fill:#FFFFFF;" d="M220.491,265.399l-4.74,1.71c0,0-5.24-18.89-7.06-29.67
				c-0.05-0.29-0.09-0.7-0.12-1.23c-0.21-3.03-0.22-9.68-0.16-16.31c0.08-8.85,0.28-17.65,0.28-17.65
				c3.34,2.21,4.92,11.71,5.75,20.66c0.31,3.34,0.52,6.61,0.68,9.39c0.15,2.59,0.26,4.76,0.36,6.19
				C216.011,245.619,220.491,265.399,220.491,265.399z"/>
			<path style="opacity:0.2;" d="M215.121,232.299c-1.78,1.26-4.23,2.86-6.55,3.91c-0.21-3.03-0.22-9.68-0.16-16.31l1.56,3.56
				l4.47-0.55C214.751,226.249,214.961,229.519,215.121,232.299z"/>
		</g>
		<g>
			<path style="fill:#FFB573;" d="M223.759,225.63l6.9-3.801l1.312,7.455c0,0-7.043,2.531-8.255,0.527L223.759,225.63z"/>
			<polygon style="fill:#FFB573;" points="237.296,224.202 236.862,229.621 231.971,229.283 230.659,221.828 			"/>
		</g>
		<path style="fill:#263238;" d="M176.979,165.9c0,0,2.129-7.055,13.263-6.066c11.133,0.989,14.034,10.966,11.001,18.933
			c-3.033,7.968,0.264,14.363,0.264,14.363s-1.912-0.743-2.506-3.009c0,0-0.33,1.954,0.659,3.998c0,0-14.62,2.901-22.013,0.725
			c0,0,1.902-2.571,1.408-5.67c0,0-0.362,3.265-1.68,4.369c0,0,1.385-3.841,0.659-6.544c-0.725-2.703-5.143-2.967-5.934-10.154
			S174.012,165.175,176.979,165.9z"/>
		<path style="fill:#FFB573;" d="M207.642,247.392c0,0,5.207,40.497,4.753,66.213c1.802,24.118,3.319,74.743,6.062,80.212
			c-0.094,1.233-3.62,1.78-4.774,1.039c0,0-18.808-42.09-16.385-81.251c-16.564-40.842-15.574-66.213-15.574-66.213H207.642z"/>
		<path style="fill:#FFB573;" d="M200.587,247.392c0,0-11.841,45.708-16.532,68.153c-4.927,23.572-9.977,52.047-10.046,78.856
			c-1.319,0.779-1.773,2.162-4.439,1.335c0,0-12.554-53.916-1.921-79.148c-4.666-55.838,10.105-69.196,10.105-69.196H200.587z"/>
		<path style="fill:#263238;" d="M165.618,307.612c0.584,0.699,1.511,1.427,2.75,2.136c0.14-5.176,1.628-7.584,1.628-7.584
			s-0.499,4.01,0.802,8.778c7.899,3.34,23.135,5.544,42.173,0.874c0-22.334-4.417-59.932-4.721-63.602c0,0-22.59,0.592-31.759,0.592
			C166.452,260.779,163.756,299.193,165.618,307.612z"/>
		<path style="fill:#263238;" d="M169.57,395.736c0,0-2.814,0.762-3.116,4.921c-0.301,4.159,0.87,15.607,0.87,15.607h1.05
			c0,0-0.303-10.374,0.108-12.243c0.327,5.421,4.206,12.243,9.341,12.243c1.822,0-2.148-8.284-2.789-13.32
			c-0.641-5.037-0.847-6.805-0.847-6.805L169.57,395.736z"/>
		<path style="fill:#FFB573;" d="M174.081,392.466l-4.512,3.27c0.238,5.616,2.229,12.796,4.863,15.127
			c0.702,0.621,1.918-0.131,1.689-1.064C174.097,401.532,174.081,392.466,174.081,392.466z"/>
		<path style="fill:#263238;" d="M214.572,395.736c0,0-2.814,0.762-3.115,4.921c-0.301,4.159,0.87,15.607,0.87,15.607h1.05
			c0,0-0.303-10.374,0.108-12.243c0.327,5.421,4.205,12.243,9.341,12.243c1.822,0-2.148-8.284-2.789-13.32s-1.238-7.208-1.238-7.208
			H214.572z"/>
		<path style="fill:#FFB573;" d="M217.883,391.958c-0.492-1.303-4.442,2.536-4.442,2.536c0.238,5.616,3.36,14.038,5.995,16.37
			c0.702,0.621,1.918-0.131,1.689-1.064C219.1,401.532,219.309,395.736,217.883,391.958z"/>
		<path style="opacity:0.2;fill:#FFFFFF;" d="M165.618,307.612c0.584,0.699,1.511,1.427,2.75,2.136
			c0.14-5.176,1.628-7.584,1.628-7.584s-0.499,4.01,0.802,8.778c7.899,3.34,23.135,5.544,42.173,0.874
			c0-22.334-4.417-59.932-4.721-63.602c0,0-22.59,0.592-31.759,0.592C166.452,260.779,163.756,299.193,165.618,307.612z"/>
		<g>
			<path style="fill:#407BFF;" d="M175.593,222.801h34.668c0.363-6.304,0.246-9.755,0.156-12.498
				c-0.168-5.124-4.474-9.593-9.929-10.305c-1.512-0.197-3.093-0.378-4.619-0.508c-4.604-0.393-8.854-0.236-14.037,0
				c-1.333,0.061-2.632,0.158-3.857,0.275c-4.583,0.438-7.742,4.64-6.166,8.815C173.805,213.865,174.956,218.605,175.593,222.801z"
				/>
			<path style="opacity:0.7;fill:#FFFFFF;" d="M175.593,222.801h34.668c0.363-6.304,0.246-9.755,0.156-12.498
				c-0.168-5.124-4.474-9.593-9.929-10.305c-1.512-0.197-3.093-0.378-4.619-0.508c-4.604-0.393-8.854-0.236-14.037,0
				c-1.333,0.061-2.632,0.158-3.857,0.275c-4.583,0.438-7.742,4.64-6.166,8.815C173.805,213.865,174.956,218.605,175.593,222.801z"
				/>
		</g>
		<path style="fill:#263238;" d="M181.712,198.931l14.805,18.068c0,0,2.884-9.306,1.365-17.312c0,0,6.52-0.061,10.809,2.56
			c0,0,6.261,10.269,0,39.28l1.819,13.846l-10.467,3.163l-3.45-10.043l-4.175,10.567l-20.186-5.68l5.67-10.667
			c0,0-1.846-24.527-7.385-35.736C170.518,206.977,171.4,198.817,181.712,198.931z"/>
		<g>
			<path style="fill:#263238;" d="M204.801,213.749l-7.43,5l1.31,4.71c-5.21-8.17-15.27-9.71-15.27-9.71l3.15-4.27h-7.79
				c-0.17-5.43,3.69-11.14,3.69-11.14c0.47-0.09,0.92-0.17,1.37-0.24c0.87,1.81,5.2,8.922,12.59,17.852c0,0,3.042-12.073-1.5-17.132
				c7.89,2.63,10.54,9.34,10.54,9.34l-4.73,1.46L204.801,213.749z"/>
			<path style="opacity:0.2;fill:#FFFFFF;" d="M204.801,213.749l-7.43,5l1.31,4.71c-5.21-8.17-15.27-9.71-15.27-9.71l3.15-4.27
				h-7.79c-0.17-5.43,3.69-11.14,3.69-11.14c0.47-0.09,0.92-0.17,1.37-0.24c0.87,1.81,5.2,8.922,12.59,17.852
				c0,0,3.042-12.073-1.5-17.132c7.89,2.63,10.54,9.34,10.54,9.34l-4.73,1.46L204.801,213.749z"/>
		</g>
		<path style="fill:#FFB573;" d="M182.817,183.699c1.222,4.516,2.722,12.792-0.213,15.805c0,0-2.109,3.962,9.813,3.601
			c1.036,2.482,3.053,7.035,3.053,7.035s0.147-5.354-0.68-7.163c7.668-0.662,1.85-3.473,1.85-3.473
			c-5.126-1.203-5.274-4.939-4.659-8.449L182.817,183.699z"/>
		<path style="opacity:0.2;" d="M186.554,186.701l5.424,4.351c-0.149,0.831-0.25,1.673-0.247,2.492
			c-1.945-0.278-4.745-2.39-5.099-4.405C186.455,188.134,186.425,187.168,186.554,186.701z"/>
		<path style="fill:#FFB573;" d="M178.961,174.634c1.37,7.293,1.796,10.4,5.957,13.898c6.26,5.262,14.86,2.478,15.682-4.957
			c0.74-6.692-1.625-17.494-9.14-19.902C184.056,161.301,177.59,167.341,178.961,174.634z"/>
		<path style="fill:#263238;" d="M185.232,169.365c-4.025,5.193,4.241,11.165-4.025,10.819c-8.266-0.346-4.907-12.018,0-14.671
			C186.114,162.861,185.232,169.365,185.232,169.365z"/>
		<path style="fill:#263238;" d="M181.231,165.602c1.036,4.974,1.837,6.264,6.26,4.913c-1.061-1.271-0.827-3.383-0.827-3.383
			s0.726,2.062,2.475,2.734c1.333-0.529,2.49-0.934,3.688-1.131c-0.387-0.89-0.217-2.151-0.217-2.151s0.536,1.359,1.67,2.03
			c1.169-0.008,2.441,0.202,3.993,0.704C198.25,164.077,189.369,158.43,181.231,165.602z"/>
		<path style="fill:#263238;" d="M190.513,175.849c0.089,0.617,0.48,1.094,0.876,1.064c0.395-0.029,0.644-0.553,0.555-1.17
			c-0.089-0.617-0.481-1.094-0.876-1.064C190.673,174.708,190.424,175.232,190.513,175.849z"/>
		<path style="fill:#263238;" d="M197.962,175.41c0.089,0.617,0.481,1.094,0.876,1.064c0.395-0.029,0.644-0.553,0.555-1.17
			c-0.089-0.617-0.481-1.094-0.876-1.064C198.122,174.269,197.873,174.792,197.962,175.41z"/>
		<path style="fill:#263238;" d="M198.347,174.287l1.39-0.534C199.738,173.752,199.159,174.965,198.347,174.287z"/>
		<path style="fill:#ED893E;" d="M196.035,176.574c0,0,1.407,2.581,2.72,3.779c-0.689,0.819-2.095,0.572-2.095,0.572
			L196.035,176.574z"/>
		<path style="fill:#263238;" d="M193.511,183.462c0.321,0.034,0.663,0.041,1.026,0.014c0.098-0.007,0.166-0.094,0.151-0.195
			c-0.014-0.099-0.103-0.174-0.204-0.168c-2.65,0.197-4.163-1.605-4.178-1.623c-0.065-0.08-0.179-0.096-0.253-0.035
			c-0.074,0.061-0.082,0.175-0.016,0.254C190.096,181.781,191.312,183.232,193.511,183.462z"/>
		<path style="fill:#FFB573;" d="M178.253,181.666c0.747,1.495,1.973,2.417,3.101,2.716c1.697,0.45,2.434-1.495,1.868-3.439
			c-0.509-1.749-2.005-4.091-3.663-3.668C177.925,177.692,177.398,179.956,178.253,181.666z"/>
		<path style="fill:#263238;" d="M188.433,172.532c0.095,0.002,0.187-0.035,0.254-0.109c1.034-1.157,2.345-0.909,2.36-0.906
			c0.194,0.037,0.376-0.088,0.401-0.285c0.025-0.197-0.115-0.388-0.312-0.428c-0.069-0.013-1.714-0.326-2.997,1.11
			c-0.128,0.143-0.109,0.373,0.042,0.514C188.254,172.496,188.345,172.531,188.433,172.532z"/>
		<path style="fill:#263238;" d="M199.636,171.866c0.09,0.007,0.179-0.019,0.249-0.081c0.144-0.127,0.15-0.355,0.012-0.509
			c-1.376-1.546-3.016-1.383-3.086-1.375c-0.196,0.022-0.325,0.2-0.289,0.399c0.036,0.198,0.224,0.341,0.42,0.32
			c0.064-0.007,1.339-0.115,2.433,1.115C199.447,171.814,199.541,171.859,199.636,171.866z"/>
		<path style="fill:#263238;" d="M190.898,174.726l1.391-0.534C192.289,174.192,191.71,175.404,190.898,174.726z"/>
		<path style="fill:#FFB573;" d="M222.344,277.773l1.227-1.953c0.462-0.734,0.54-1.647,0.209-2.449l-1.542-3.749
			c-0.617-1.499-1.921-2.606-3.5-2.971l-0.977-0.226c-2.257,3.1-2.411,8.112-2.411,8.112l-0.203,1.424
			c-0.18,1.268,0.624,2.393,1.847,2.583l2.816,0.438C220.783,279.134,221.791,278.653,222.344,277.773z"/>
		<path style="fill:#263238;" d="M208.08,249.6c-10.449,1.159-21.351,1.096-31.8-0.064c-0.463-0.05-0.741-0.55-0.552-0.986
			c0.259-0.594,0.516-1.19,0.771-1.786c0.119-0.277,0.394-0.445,0.683-0.413c10.044,1.073,20.534,1.116,30.575,0.001
			c0.368-0.043,0.699,0.239,0.74,0.623c0.064,0.617,0.127,1.233,0.19,1.851C208.727,249.212,208.455,249.557,208.08,249.6z"/>
		<g>
			<path style="fill:#407BFF;" d="M193.001,197.68c0,0,2.26,2.419,1.789,5.298l5.206,1.098
				C199.997,204.076,199.207,198.158,193.001,197.68z"/>
			<path style="fill:#407BFF;" d="M192.418,203.105c0,0-6.964-4.01-8.515-6.186l-3.105,2.33c0,0-0.975,3.639,3.236,6.903
				L192.418,203.105z"/>
			<path style="opacity:0.6;fill:#FFFFFF;" d="M193.001,197.68c0,0,2.26,2.419,1.789,5.298l5.206,1.098
				C199.997,204.076,199.207,198.158,193.001,197.68z"/>
			<path style="opacity:0.6;fill:#FFFFFF;" d="M192.418,203.105c0,0-6.964-4.01-8.515-6.186l-3.105,2.33
				c0,0-0.975,3.639,3.236,6.903L192.418,203.105z"/>
		</g>
		<g>
			<path style="fill:#263238;" d="M224.213,231.426c-4.795,1.109-9.59,1.947-14.513,2.484c-2.579,0.29-5.179,0.469-7.841,0.532
				c-2.68,0.042-5.372-0.037-8.321-0.566c-1.483-0.29-3.029-0.676-4.811-1.65l-0.652-0.409l-0.429-0.292l-0.86-0.575
				c-0.573-0.393-1.156-0.777-1.695-1.209c-2.224-1.649-4.251-3.534-6.148-5.539c-1.876-2.024-3.601-4.178-5.158-6.449
				c-0.757-1.149-1.482-2.326-2.154-3.539c-0.346-0.607-0.661-1.232-0.985-1.858l-0.449-0.976c-0.154-0.352-0.284-0.633-0.469-1.108
				c-0.965-2.398-0.252-6.346,2.145-7.301c2.295-0.923,5.326,1.337,6.387,3.532l0.139,0.291l0.295,0.624l0.377,0.73
				c0.255,0.49,0.508,0.99,0.792,1.483c0.538,0.992,1.159,1.961,1.779,2.929c1.23,1.936,2.607,3.783,4.113,5.519
				c1.507,1.726,3.077,3.407,4.822,4.89c0.412,0.391,0.857,0.745,1.303,1.099l1.145,0.927c0.41,0.291,1.306,0.648,2.279,0.911
				c1.996,0.539,4.363,0.795,6.736,0.98c2.384,0.177,4.837,0.218,7.292,0.239c4.794-0.006,14.564-1.418,14.564-1.418
				L224.213,231.426z"/>
			<path style="opacity:0.2;fill:#FFFFFF;" d="M224.213,231.426c-4.795,1.109-9.59,1.947-14.513,2.484
				c-2.579,0.29-5.179,0.469-7.841,0.532c-2.68,0.042-5.372-0.037-8.321-0.566c-1.483-0.29-3.029-0.676-4.811-1.65l-0.652-0.409
				l-0.429-0.292l-0.86-0.575c-0.573-0.393-1.156-0.777-1.695-1.209c-2.224-1.649-4.251-3.534-6.148-5.539
				c-1.876-2.024-3.601-4.178-5.158-6.449c-0.757-1.149-1.482-2.326-2.154-3.539c-0.346-0.607-0.661-1.232-0.985-1.858l-0.449-0.976
				c-0.154-0.352-0.284-0.633-0.469-1.108c-0.965-2.398-0.252-6.346,2.145-7.301c2.295-0.923,5.326,1.337,6.387,3.532l0.139,0.291
				l0.295,0.624l0.377,0.73c0.255,0.49,0.508,0.99,0.792,1.483c0.538,0.992,1.159,1.961,1.779,2.929
				c1.23,1.936,2.607,3.783,4.113,5.519c1.507,1.726,3.077,3.407,4.822,4.89c0.412,0.391,0.857,0.745,1.303,1.099l1.145,0.927
				c0.41,0.291,1.306,0.648,2.279,0.911c1.996,0.539,4.363,0.795,6.736,0.98c2.384,0.177,4.837,0.218,7.292,0.239
				c4.794-0.006,14.564-1.418,14.564-1.418L224.213,231.426z"/>
		</g>
		<g>
			<polygon style="fill:#407BFF;" points="221.191,224.962 221.742,232.244 224.76,231.674 224.308,224.856 			"/>
			<polygon style="opacity:0.7;fill:#FFFFFF;" points="221.191,224.962 221.742,232.244 224.76,231.674 224.308,224.856 			"/>
		</g>
		<g>
			<polygon style="fill:#407BFF;" points="221.566,264.868 214.435,266.443 215.426,269.349 222.111,267.939 			"/>
			<polygon style="opacity:0.7;fill:#FFFFFF;" points="221.566,264.868 214.435,266.443 215.426,269.349 222.111,267.939 			"/>
		</g>
	</g>
</g>
</svg>
